<svg xmlns="http://www.w3.org/2000/svg" viewBox="0 0 760 30" width="760" height="30"><g><defs><clipPath id="clip_frame0_path_2"><path d="M6.5 29c1-8.7 7.3-15.2 14-14.8 6.2.3 11.8 6.9 13 14.8"/></clipPath><clipPath id="clip_frame0_path_5"><path d="M20 1c-1.436 0-2.835.441-3.997 1.26-1.162.82-2.026 1.975-2.47 3.3-.444 1.326-.444 2.754 0 4.08.444 1.325 1.308 2.48 2.47 3.3 1.162.819 2.561 1.26 3.997 1.26s2.835-.441 3.997-1.26c1.162-.82 2.026-1.975 2.47-3.3.444-1.326.444-2.754 0-4.08-.444-1.325-1.308-2.48-2.47-3.3C22.835 1.441 21.436 1 20 1z"/></clipPath></defs><path d="M20 1c-1.436 0-2.835.441-3.997 1.26-1.162.82-2.026 1.975-2.47 3.3-.444 1.326-.444 2.754 0 4.08.444 1.325 1.308 2.48 2.47 3.3 1.162.819 2.561 1.26 3.997 1.26s2.835-.441 3.997-1.26c1.162-.82 2.026-1.975 2.47-3.3.444-1.326.444-2.754 0-4.08-.444-1.325-1.308-2.48-2.47-3.3C22.835 1.441 21.436 1 20 1z" fill="#232f3e" stroke="#ffffff" stroke-width=".5" stroke-miterlimit="10"/><path d="M6.5 29c1-8.7 7.3-15.2 14-14.8 6.2.3 11.8 6.9 13 14.8" fill="#232f3e" stroke="#ffffff" stroke-width=".5" stroke-miterlimit="10"/><path clip-path="url(#clip_frame0_path_2)" d="M4.4 29.1s9.1.1 17.7 0 14.7 0 14.7 0v.7H4.4v-.7z" fill="#ffffff" stroke="#ffffff" stroke-width=".25" stroke-dasharray="0,66.20067714389886" stroke-dashoffset="66.200677" stroke-miterlimit="10"/><path clip-path="url(#clip_frame0_path_5)" d="M4.4 29.1s9.1.1 17.7 0 14.7 0 14.7 0v.7H4.4v-.7z" fill="#ffffff" stroke="#ffffff" stroke-width=".25" stroke-miterlimit="10"/></g><g transform="translate(40)"><defs><clipPath id="clip_frame1_path_2"><path d="M6.5 29c1-8.7 7.3-15.2 14-14.8 6.2.3 11.8 6.9 13 14.8"/></clipPath><clipPath id="clip_frame1_path_5"><path d="M20 1c-1.436 0-2.835.441-3.997 1.26-1.162.82-2.026 1.975-2.47 3.3-.444 1.326-.444 2.754 0 4.08.444 1.325 1.308 2.48 2.47 3.3 1.162.819 2.561 1.26 3.997 1.26s2.835-.441 3.997-1.26c1.162-.82 2.026-1.975 2.47-3.3.444-1.326.444-2.754 0-4.08-.444-1.325-1.308-2.48-2.47-3.3C22.835 1.441 21.436 1 20 1z"/></clipPath></defs><path d="M20 1c-1.436 0-2.835.441-3.997 1.26-1.162.82-2.026 1.975-2.47 3.3-.444 1.326-.444 2.754 0 4.08.444 1.325 1.308 2.48 2.47 3.3 1.162.819 2.561 1.26 3.997 1.26s2.835-.441 3.997-1.26c1.162-.82 2.026-1.975 2.47-3.3.444-1.326.444-2.754 0-4.08-.444-1.325-1.308-2.48-2.47-3.3C22.835 1.441 21.436 1 20 1z" fill="#232f3e" stroke="#ffffff" stroke-width=".5" stroke-miterlimit="10"/><path d="M6.5 29c1-8.7 7.3-15.2 14-14.8 6.2.3 11.8 6.9 13 14.8" fill="#232f3e" stroke="#ffffff" stroke-width=".5" stroke-miterlimit="10"/><path clip-path="url(#clip_frame1_path_2)" d="M4.4 28.873s9.1.132 17.7 0c8.6-.133 14.7 0 14.7 0v.927H4.4v-.927z" fill="#ffffff" stroke="#ffffff" stroke-width=".25" stroke-dasharray="0,66.65542859996489" stroke-dashoffset="66.655429" stroke-miterlimit="10"/><path clip-path="url(#clip_frame1_path_5)" d="M4.4 29.1s9.1.1 17.7 0 14.7 0 14.7 0v.7H4.4v-.7z" fill="#ffffff" stroke="#ffffff" stroke-width=".25" stroke-miterlimit="10"/></g><g transform="translate(80)"><defs><clipPath id="clip_frame2_path_2"><path d="M6.5 29c1-8.7 7.3-15.2 14-14.8 6.2.3 11.8 6.9 13 14.8"/></clipPath><clipPath id="clip_frame2_path_5"><path d="M20 1c-1.436 0-2.835.441-3.997 1.26-1.162.82-2.026 1.975-2.47 3.3-.444 1.326-.444 2.754 0 4.08.444 1.325 1.308 2.48 2.47 3.3 1.162.819 2.561 1.26 3.997 1.26s2.835-.441 3.997-1.26c1.162-.82 2.026-1.975 2.47-3.3.444-1.326.444-2.754 0-4.08-.444-1.325-1.308-2.48-2.47-3.3C22.835 1.441 21.436 1 20 1z"/></clipPath></defs><path d="M20 1c-1.436 0-2.835.441-3.997 1.26-1.162.82-2.026 1.975-2.47 3.3-.444 1.326-.444 2.754 0 4.08.444 1.325 1.308 2.48 2.47 3.3 1.162.819 2.561 1.26 3.997 1.26s2.835-.441 3.997-1.26c1.162-.82 2.026-1.975 2.47-3.3.444-1.326.444-2.754 0-4.08-.444-1.325-1.308-2.48-2.47-3.3C22.835 1.441 21.436 1 20 1z" fill="#232f3e" stroke="#ffffff" stroke-width=".5" stroke-miterlimit="10"/><path d="M6.5 29c1-8.7 7.3-15.2 14-14.8 6.2.3 11.8 6.9 13 14.8" fill="#232f3e" stroke="#ffffff" stroke-width=".5" stroke-miterlimit="10"/><path clip-path="url(#clip_frame2_path_2)" d="M4.4 28.067s9.1.247 17.7 0c8.6-.248 14.7 0 14.7 0V29.8H4.4v-1.733z" fill="#ffffff" stroke="#ffffff" stroke-width=".25" stroke-dasharray="0,68.27059653008548" stroke-dashoffset="68.270597" stroke-miterlimit="10"/><path clip-path="url(#clip_frame2_path_5)" d="M4.4 28.936s9.1.123 17.7 0 14.7 0 14.7 0v.864H4.4v-.864z" fill="#ffffff" stroke="#ffffff" stroke-width=".25" stroke-miterlimit="10"/></g><g transform="translate(120)"><defs><clipPath id="clip_frame3_path_2"><path d="M6.5 29c1-8.7 7.3-15.2 14-14.8 6.2.3 11.8 6.9 13 14.8"/></clipPath><clipPath id="clip_frame3_path_5"><path d="M20 1c-1.436 0-2.835.441-3.997 1.26-1.162.82-2.026 1.975-2.47 3.3-.444 1.326-.444 2.754 0 4.08.444 1.325 1.308 2.48 2.47 3.3 1.162.819 2.561 1.26 3.997 1.26s2.835-.441 3.997-1.26c1.162-.82 2.026-1.975 2.47-3.3.444-1.326.444-2.754 0-4.08-.444-1.325-1.308-2.48-2.47-3.3C22.835 1.441 21.436 1 20 1z"/></clipPath></defs><path d="M20 1c-1.436 0-2.835.441-3.997 1.26-1.162.82-2.026 1.975-2.47 3.3-.444 1.326-.444 2.754 0 4.08.444 1.325 1.308 2.48 2.47 3.3 1.162.819 2.561 1.26 3.997 1.26s2.835-.441 3.997-1.26c1.162-.82 2.026-1.975 2.47-3.3.444-1.326.444-2.754 0-4.08-.444-1.325-1.308-2.48-2.47-3.3C22.835 1.441 21.436 1 20 1z" fill="#232f3e" stroke="#ffffff" stroke-width=".5" stroke-miterlimit="10"/><path d="M6.5 29c1-8.7 7.3-15.2 14-14.8 6.2.3 11.8 6.9 13 14.8" fill="#232f3e" stroke="#ffffff" stroke-width=".5" stroke-miterlimit="10"/><path clip-path="url(#clip_frame3_path_2)" d="M4.4 26.419s9.1.483 17.7 0 14.7 0 14.7 0V29.8H4.4v-3.381z" fill="#ffffff" stroke="#ffffff" stroke-width=".25" stroke-dasharray="0,71.57743312159195" stroke-dashoffset="71.577433" stroke-miterlimit="10"/><path clip-path="url(#clip_frame3_path_5)" d="M4.4 28.149s9.1.235 17.7 0c8.6-.236 14.7 0 14.7 0V29.8H4.4v-1.651z" fill="#ffffff" stroke="#ffffff" stroke-width=".25" stroke-miterlimit="10"/></g><g transform="translate(160)"><defs><clipPath id="clip_frame4_path_2"><path d="M6.5 29c1-8.7 7.3-15.2 14-14.8 6.2.3 11.8 6.9 13 14.8"/></clipPath><clipPath id="clip_frame4_path_5"><path d="M20 1c-1.436 0-2.835.441-3.997 1.26-1.162.82-2.026 1.975-2.47 3.3-.444 1.326-.444 2.754 0 4.08.444 1.325 1.308 2.48 2.47 3.3 1.162.819 2.561 1.26 3.997 1.26s2.835-.441 3.997-1.26c1.162-.82 2.026-1.975 2.47-3.3.444-1.326.444-2.754 0-4.08-.444-1.325-1.308-2.48-2.47-3.3C22.835 1.441 21.436 1 20 1z"/></clipPath></defs><path d="M20 1c-1.436 0-2.835.441-3.997 1.26-1.162.82-2.026 1.975-2.47 3.3-.444 1.326-.444 2.754 0 4.08.444 1.325 1.308 2.48 2.47 3.3 1.162.819 2.561 1.26 3.997 1.26s2.835-.441 3.997-1.26c1.162-.82 2.026-1.975 2.47-3.3.444-1.326.444-2.754 0-4.08-.444-1.325-1.308-2.48-2.47-3.3C22.835 1.441 21.436 1 20 1z" fill="#232f3e" stroke="#ffffff" stroke-width=".5" stroke-miterlimit="10"/><path d="M6.5 29c1-8.7 7.3-15.2 14-14.8 6.2.3 11.8 6.9 13 14.8" fill="#232f3e" stroke="#ffffff" stroke-width=".5" stroke-miterlimit="10"/><path clip-path="url(#clip_frame4_path_2)" d="M4.4 23.582s9.1.888 17.7 0 14.7 0 14.7 0V29.8H4.4v-6.218z" fill="#ffffff" stroke="#ffffff" stroke-width=".25" stroke-dasharray="0,77.28894024205867" stroke-dashoffset="77.28894" stroke-miterlimit="10"/><path clip-path="url(#clip_frame4_path_5)" d="M4.4 26.419s9.1.483 17.7 0 14.7 0 14.7 0V29.8H4.4v-3.381z" fill="#ffffff" stroke="#ffffff" stroke-width=".25" stroke-miterlimit="10"/></g><g transform="translate(200)"><defs><clipPath id="clip_frame5_path_2"><path d="M6.5 29c1-8.7 7.3-15.2 14-14.8 6.2.3 11.8 6.9 13 14.8"/></clipPath><clipPath id="clip_frame5_path_5"><path d="M20 1c-1.436 0-2.835.441-3.997 1.26-1.162.82-2.026 1.975-2.47 3.3-.444 1.326-.444 2.754 0 4.08.444 1.325 1.308 2.48 2.47 3.3 1.162.819 2.561 1.26 3.997 1.26s2.835-.441 3.997-1.26c1.162-.82 2.026-1.975 2.47-3.3.444-1.326.444-2.754 0-4.08-.444-1.325-1.308-2.48-2.47-3.3C22.835 1.441 21.436 1 20 1z"/></clipPath></defs><path d="M20 1c-1.436 0-2.835.441-3.997 1.26-1.162.82-2.026 1.975-2.47 3.3-.444 1.326-.444 2.754 0 4.08.444 1.325 1.308 2.48 2.47 3.3 1.162.819 2.561 1.26 3.997 1.26s2.835-.441 3.997-1.26c1.162-.82 2.026-1.975 2.47-3.3.444-1.326.444-2.754 0-4.08-.444-1.325-1.308-2.48-2.47-3.3C22.835 1.441 21.436 1 20 1z" fill="#232f3e" stroke="#ffffff" stroke-width=".5" stroke-miterlimit="10"/><path d="M6.5 29c1-8.7 7.3-15.2 14-14.8 6.2.3 11.8 6.9 13 14.8" fill="#232f3e" stroke="#ffffff" stroke-width=".5" stroke-miterlimit="10"/><path clip-path="url(#clip_frame5_path_2)" d="M4.4 19.425s9.1 1.482 17.7 0 14.7 0 14.7 0V29.8H4.4V19.425z" fill="#ffffff" stroke="#ffffff" stroke-width=".25" stroke-dasharray="0,85.69789423491278" stroke-dashoffset="85.697894" stroke-miterlimit="10"/><path clip-path="url(#clip_frame5_path_5)" d="M4.4 23.327s9.1.924 17.7 0c8.6-.925 14.7 0 14.7 0V29.8H4.4v-6.473z" fill="#ffffff" stroke="#ffffff" stroke-width=".25" stroke-miterlimit="10"/></g><g transform="translate(240)"><defs><clipPath id="clip_frame6_path_2"><path d="M6.5 29c1-8.7 7.3-15.2 14-14.8 6.2.3 11.8 6.9 13 14.8"/></clipPath><clipPath id="clip_frame6_path_5"><path d="M20 1c-1.436 0-2.835.441-3.997 1.26-1.162.82-2.026 1.975-2.47 3.3-.444 1.326-.444 2.754 0 4.08.444 1.325 1.308 2.48 2.47 3.3 1.162.819 2.561 1.26 3.997 1.26s2.835-.441 3.997-1.26c1.162-.82 2.026-1.975 2.47-3.3.444-1.326.444-2.754 0-4.08-.444-1.325-1.308-2.48-2.47-3.3C22.835 1.441 21.436 1 20 1z"/></clipPath></defs><path d="M20 1c-1.436 0-2.835.441-3.997 1.26-1.162.82-2.026 1.975-2.47 3.3-.444 1.326-.444 2.754 0 4.08.444 1.325 1.308 2.48 2.47 3.3 1.162.819 2.561 1.26 3.997 1.26s2.835-.441 3.997-1.26c1.162-.82 2.026-1.975 2.47-3.3.444-1.326.444-2.754 0-4.08-.444-1.325-1.308-2.48-2.47-3.3C22.835 1.441 21.436 1 20 1z" fill="#232f3e" stroke="#ffffff" stroke-width=".5" stroke-miterlimit="10"/><path d="M6.5 29c1-8.7 7.3-15.2 14-14.8 6.2.3 11.8 6.9 13 14.8" fill="#232f3e" stroke="#ffffff" stroke-width=".5" stroke-miterlimit="10"/><path clip-path="url(#clip_frame6_path_2)" d="M4.4 14.697s9.1 2.157 17.7 0c8.6-2.158 14.7 0 14.7 0V29.8H4.4V14.697z" fill="#ffffff" stroke="#ffffff" stroke-width=".25" stroke-dasharray="0,95.31902302329961" stroke-dashoffset="95.319023" stroke-miterlimit="10"/><path clip-path="url(#clip_frame6_path_5)" d="M4.4 18.755s9.1 1.578 17.7 0 14.7 0 14.7 0V29.8H4.4V18.755z" fill="#ffffff" stroke="#ffffff" stroke-width=".25" stroke-miterlimit="10"/></g><g transform="translate(280)"><defs><clipPath id="clip_frame7_path_2"><path d="M6.5 29c1-8.7 7.3-15.2 14-14.8 6.2.3 11.8 6.9 13 14.8"/></clipPath><clipPath id="clip_frame7_path_5"><path d="M20 1c-1.436 0-2.835.441-3.997 1.26-1.162.82-2.026 1.975-2.47 3.3-.444 1.326-.444 2.754 0 4.08.444 1.325 1.308 2.48 2.47 3.3 1.162.819 2.561 1.26 3.997 1.26s2.835-.441 3.997-1.26c1.162-.82 2.026-1.975 2.47-3.3.444-1.326.444-2.754 0-4.08-.444-1.325-1.308-2.48-2.47-3.3C22.835 1.441 21.436 1 20 1z"/></clipPath></defs><path d="M20 1c-1.436 0-2.835.441-3.997 1.26-1.162.82-2.026 1.975-2.47 3.3-.444 1.326-.444 2.754 0 4.08.444 1.325 1.308 2.48 2.47 3.3 1.162.819 2.561 1.26 3.997 1.26s2.835-.441 3.997-1.26c1.162-.82 2.026-1.975 2.47-3.3.444-1.326.444-2.754 0-4.08-.444-1.325-1.308-2.48-2.47-3.3C22.835 1.441 21.436 1 20 1z" fill="#232f3e" stroke="#ffffff" stroke-width=".5" stroke-miterlimit="10"/><path d="M6.5 29c1-8.7 7.3-15.2 14-14.8 6.2.3 11.8 6.9 13 14.8" fill="#232f3e" stroke="#ffffff" stroke-width=".5" stroke-miterlimit="10"/><path clip-path="url(#clip_frame7_path_2)" d="M4.4 10.503s9.1 2.756 17.7 0c8.6-2.757 14.7 0 14.7 0V29.8H4.4V10.503z" fill="#ffffff" stroke="#ffffff" stroke-width=".25" stroke-dasharray="0,103.90107287729127" stroke-dashoffset="103.901073" stroke-miterlimit="10"/><path clip-path="url(#clip_frame7_path_5)" d="M4.4 13.728s9.1 2.296 17.7 0 14.7 0 14.7 0V29.8H4.4V13.728z" fill="#ffffff" stroke="#ffffff" stroke-width=".25" stroke-miterlimit="10"/></g><g transform="translate(320)"><defs><clipPath id="clip_frame8_path_2"><path d="M6.5 29c1-8.7 7.3-15.2 14-14.8 6.2.3 11.8 6.9 13 14.8"/></clipPath><clipPath id="clip_frame8_path_5"><path d="M20 1c-1.436 0-2.835.441-3.997 1.26-1.162.82-2.026 1.975-2.47 3.3-.444 1.326-.444 2.754 0 4.08.444 1.325 1.308 2.48 2.47 3.3 1.162.819 2.561 1.26 3.997 1.26s2.835-.441 3.997-1.26c1.162-.82 2.026-1.975 2.47-3.3.444-1.326.444-2.754 0-4.08-.444-1.325-1.308-2.48-2.47-3.3C22.835 1.441 21.436 1 20 1z"/></clipPath></defs><path d="M20 1c-1.436 0-2.835.441-3.997 1.26-1.162.82-2.026 1.975-2.47 3.3-.444 1.326-.444 2.754 0 4.08.444 1.325 1.308 2.48 2.47 3.3 1.162.819 2.561 1.26 3.997 1.26s2.835-.441 3.997-1.26c1.162-.82 2.026-1.975 2.47-3.3.444-1.326.444-2.754 0-4.08-.444-1.325-1.308-2.48-2.47-3.3C22.835 1.441 21.436 1 20 1z" fill="#232f3e" stroke="#ffffff" stroke-width=".5" stroke-miterlimit="10"/><path d="M6.5 29c1-8.7 7.3-15.2 14-14.8 6.2.3 11.8 6.9 13 14.8" fill="#232f3e" stroke="#ffffff" stroke-width=".5" stroke-miterlimit="10"/><path clip-path="url(#clip_frame8_path_2)" d="M4.4 7.2s9.1 3.229 17.7 0c8.6-3.228 14.7 0 14.7 0v22.6H4.4V7.2z" fill="#ffffff" stroke="#ffffff" stroke-width=".25" stroke-dasharray="0,110.69066166093772" stroke-dashoffset="110.690662" stroke-miterlimit="10"/><path clip-path="url(#clip_frame8_path_5)" d="M4.4 9.47s9.1 2.904 17.7 0c8.6-2.905 14.7 0 14.7 0V29.8H4.4V9.47z" fill="#ffffff" stroke="#ffffff" stroke-width=".25" stroke-miterlimit="10"/></g><g transform="translate(360)"><defs><clipPath id="clip_frame9_path_2"><path d="M6.5 29c1-8.7 7.3-15.2 14-14.8 6.2.3 11.8 6.9 13 14.8"/></clipPath><clipPath id="clip_frame9_path_5"><path d="M20 1c-1.436 0-2.835.441-3.997 1.26-1.162.82-2.026 1.975-2.47 3.3-.444 1.326-.444 2.754 0 4.08.444 1.325 1.308 2.48 2.47 3.3 1.162.819 2.561 1.26 3.997 1.26s2.835-.441 3.997-1.26c1.162-.82 2.026-1.975 2.47-3.3.444-1.326.444-2.754 0-4.08-.444-1.325-1.308-2.48-2.47-3.3C22.835 1.441 21.436 1 20 1z"/></clipPath></defs><path d="M20 1c-1.436 0-2.835.441-3.997 1.26-1.162.82-2.026 1.975-2.47 3.3-.444 1.326-.444 2.754 0 4.08.444 1.325 1.308 2.48 2.47 3.3 1.162.819 2.561 1.26 3.997 1.26s2.835-.441 3.997-1.26c1.162-.82 2.026-1.975 2.47-3.3.444-1.326.444-2.754 0-4.08-.444-1.325-1.308-2.48-2.47-3.3C22.835 1.441 21.436 1 20 1z" fill="#232f3e" stroke="#ffffff" stroke-width=".5" stroke-miterlimit="10"/><path d="M6.5 29c1-8.7 7.3-15.2 14-14.8 6.2.3 11.8 6.9 13 14.8" fill="#232f3e" stroke="#ffffff" stroke-width=".5" stroke-miterlimit="10"/><path clip-path="url(#clip_frame9_path_2)" d="M4.4 4.67s9.1 3.59 17.7 0 14.7 0 14.7 0V29.8H4.4V4.67z" fill="#ffffff" stroke="#ffffff" stroke-width=".25" stroke-dasharray="0,115.91049485876341" stroke-dashoffset="115.910495" stroke-miterlimit="10"/><path clip-path="url(#clip_frame9_path_5)" d="M4.4 6.218s9.1 3.369 17.7 0 14.7 0 14.7 0V29.8H4.4V6.218z" fill="#ffffff" stroke="#ffffff" stroke-width=".25" stroke-miterlimit="10"/></g><g transform="translate(400)"><defs><clipPath id="clip_frame10_path_2"><path d="M6.5 29c1-8.7 7.3-15.2 14-14.8 6.2.3 11.8 6.9 13 14.8"/></clipPath><clipPath id="clip_frame10_path_5"><path d="M20 1c-1.436 0-2.835.441-3.997 1.26-1.162.82-2.026 1.975-2.47 3.3-.444 1.326-.444 2.754 0 4.08.444 1.325 1.308 2.48 2.47 3.3 1.162.819 2.561 1.26 3.997 1.26s2.835-.441 3.997-1.26c1.162-.82 2.026-1.975 2.47-3.3.444-1.326.444-2.754 0-4.08-.444-1.325-1.308-2.48-2.47-3.3C22.835 1.441 21.436 1 20 1z"/></clipPath></defs><path d="M20 1c-1.436 0-2.835.441-3.997 1.26-1.162.82-2.026 1.975-2.47 3.3-.444 1.326-.444 2.754 0 4.08.444 1.325 1.308 2.48 2.47 3.3 1.162.819 2.561 1.26 3.997 1.26s2.835-.441 3.997-1.26c1.162-.82 2.026-1.975 2.47-3.3.444-1.326.444-2.754 0-4.08-.444-1.325-1.308-2.48-2.47-3.3C22.835 1.441 21.436 1 20 1z" fill="#232f3e" stroke="#ffffff" stroke-width=".5" stroke-miterlimit="10"/><path d="M6.5 29c1-8.7 7.3-15.2 14-14.8 6.2.3 11.8 6.9 13 14.8" fill="#232f3e" stroke="#ffffff" stroke-width=".5" stroke-miterlimit="10"/><path clip-path="url(#clip_frame10_path_2)" d="M4.4 2.73s9.1 3.867 17.7 0 14.7 0 14.7 0V29.8H4.4V2.73z" fill="#ffffff" stroke="#ffffff" stroke-width=".25" stroke-dasharray="0,119.9218159509426" stroke-dashoffset="119.921816" stroke-miterlimit="10"/><path clip-path="url(#clip_frame10_path_5)" d="M4.4 3.776s9.1 3.717 17.7 0c8.6-3.718 14.7 0 14.7 0V29.8H4.4V3.776z" fill="#ffffff" stroke="#ffffff" stroke-width=".25" stroke-miterlimit="10"/></g><g transform="translate(440)"><defs><clipPath id="clip_frame11_path_2"><path d="M6.5 29c1-8.7 7.3-15.2 14-14.8 6.2.3 11.8 6.9 13 14.8"/></clipPath><clipPath id="clip_frame11_path_5"><path d="M20 1c-1.436 0-2.835.441-3.997 1.26-1.162.82-2.026 1.975-2.47 3.3-.444 1.326-.444 2.754 0 4.08.444 1.325 1.308 2.48 2.47 3.3 1.162.819 2.561 1.26 3.997 1.26s2.835-.441 3.997-1.26c1.162-.82 2.026-1.975 2.47-3.3.444-1.326.444-2.754 0-4.08-.444-1.325-1.308-2.48-2.47-3.3C22.835 1.441 21.436 1 20 1z"/></clipPath></defs><path d="M20 1c-1.436 0-2.835.441-3.997 1.26-1.162.82-2.026 1.975-2.47 3.3-.444 1.326-.444 2.754 0 4.08.444 1.325 1.308 2.48 2.47 3.3 1.162.819 2.561 1.26 3.997 1.26s2.835-.441 3.997-1.26c1.162-.82 2.026-1.975 2.47-3.3.444-1.326.444-2.754 0-4.08-.444-1.325-1.308-2.48-2.47-3.3C22.835 1.441 21.436 1 20 1z" fill="#232f3e" stroke="#ffffff" stroke-width=".5" stroke-miterlimit="10"/><path d="M6.5 29c1-8.7 7.3-15.2 14-14.8 6.2.3 11.8 6.9 13 14.8" fill="#232f3e" stroke="#ffffff" stroke-width=".5" stroke-miterlimit="10"/><path clip-path="url(#clip_frame11_path_2)" d="M4.4 1.239s9.1 4.08 17.7 0 14.7 0 14.7 0V29.8H4.4V1.239z" fill="#ffffff" stroke="#ffffff" stroke-width=".25" stroke-dasharray="0,123.01159890286893" stroke-dashoffset="123.011599" stroke-miterlimit="10"/><path clip-path="url(#clip_frame11_path_5)" d="M4.4 1.936s9.1 3.981 17.7 0 14.7 0 14.7 0V29.8H4.4V1.936z" fill="#ffffff" stroke="#ffffff" stroke-width=".25" stroke-miterlimit="10"/></g><g transform="translate(480)"><defs><clipPath id="clip_frame12_path_2"><path d="M6.5 29c1-8.7 7.3-15.2 14-14.8 6.2.3 11.8 6.9 13 14.8"/></clipPath><clipPath id="clip_frame12_path_5"><path d="M20 1c-1.436 0-2.835.441-3.997 1.26-1.162.82-2.026 1.975-2.47 3.3-.444 1.326-.444 2.754 0 4.08.444 1.325 1.308 2.48 2.47 3.3 1.162.819 2.561 1.26 3.997 1.26s2.835-.441 3.997-1.26c1.162-.82 2.026-1.975 2.47-3.3.444-1.326.444-2.754 0-4.08-.444-1.325-1.308-2.48-2.47-3.3C22.835 1.441 21.436 1 20 1z"/></clipPath></defs><path d="M20 1c-1.436 0-2.835.441-3.997 1.26-1.162.82-2.026 1.975-2.47 3.3-.444 1.326-.444 2.754 0 4.08.444 1.325 1.308 2.48 2.47 3.3 1.162.819 2.561 1.26 3.997 1.26s2.835-.441 3.997-1.26c1.162-.82 2.026-1.975 2.47-3.3.444-1.326.444-2.754 0-4.08-.444-1.325-1.308-2.48-2.47-3.3C22.835 1.441 21.436 1 20 1z" fill="#232f3e" stroke="#ffffff" stroke-width=".5" stroke-miterlimit="10"/><path d="M6.5 29c1-8.7 7.3-15.2 14-14.8 6.2.3 11.8 6.9 13 14.8" fill="#232f3e" stroke="#ffffff" stroke-width=".5" stroke-miterlimit="10"/><path clip-path="url(#clip_frame12_path_2)" d="M4.4.096s9.1 4.243 17.7 0c8.6-4.244 14.7 0 14.7 0V29.8H4.4V.096z" fill="#ffffff" stroke="#ffffff" stroke-width=".25" stroke-dasharray="0,125.38520681614379" stroke-dashoffset="125.385207" stroke-miterlimit="10"/><path clip-path="url(#clip_frame12_path_5)" d="M4.4.548s9.1 4.179 17.7 0c8.6-4.178 14.7 0 14.7 0V29.8H4.4V.548z" fill="#ffffff" stroke="#ffffff" stroke-width=".25" stroke-miterlimit="10"/></g><g transform="translate(520)"><defs><clipPath id="clip_frame13_path_2"><path d="M6.5 29c1-8.7 7.3-15.2 14-14.8 6.2.3 11.8 6.9 13 14.8"/></clipPath><clipPath id="clip_frame13_path_5"><path d="M20 1c-1.436 0-2.835.441-3.997 1.26-1.162.82-2.026 1.975-2.47 3.3-.444 1.326-.444 2.754 0 4.08.444 1.325 1.308 2.48 2.47 3.3 1.162.819 2.561 1.26 3.997 1.26s2.835-.441 3.997-1.26c1.162-.82 2.026-1.975 2.47-3.3.444-1.326.444-2.754 0-4.08-.444-1.325-1.308-2.48-2.47-3.3C22.835 1.441 21.436 1 20 1z"/></clipPath></defs><path d="M20 1c-1.436 0-2.835.441-3.997 1.26-1.162.82-2.026 1.975-2.47 3.3-.444 1.326-.444 2.754 0 4.08.444 1.325 1.308 2.48 2.47 3.3 1.162.819 2.561 1.26 3.997 1.26s2.835-.441 3.997-1.26c1.162-.82 2.026-1.975 2.47-3.3.444-1.326.444-2.754 0-4.08-.444-1.325-1.308-2.48-2.47-3.3C22.835 1.441 21.436 1 20 1z" fill="#232f3e" stroke="#ffffff" stroke-width=".5" stroke-miterlimit="10"/><path d="M6.5 29c1-8.7 7.3-15.2 14-14.8 6.2.3 11.8 6.9 13 14.8" fill="#232f3e" stroke="#ffffff" stroke-width=".5" stroke-miterlimit="10"/><path clip-path="url(#clip_frame13_path_2)" d="M4.4-.773s9.1 4.368 17.7 0c8.6-4.367 14.7 0 14.7 0V29.8H4.4V-.773z" fill="#ffffff" stroke="#ffffff" stroke-width=".25" stroke-dasharray="0,127.18882656342696" stroke-dashoffset="127.188827" stroke-miterlimit="10"/><path clip-path="url(#clip_frame13_path_5)" d="M4.4-.491s9.1 4.328 17.7 0c8.6-4.327 14.7 0 14.7 0V29.8H4.4V-.491z" fill="#ffffff" stroke="#ffffff" stroke-width=".25" stroke-miterlimit="10"/></g><g transform="translate(560)"><defs><clipPath id="clip_frame14_path_2"><path d="M6.5 29c1-8.7 7.3-15.2 14-14.8 6.2.3 11.8 6.9 13 14.8"/></clipPath><clipPath id="clip_frame14_path_5"><path d="M20 1c-1.436 0-2.835.441-3.997 1.26-1.162.82-2.026 1.975-2.47 3.3-.444 1.326-.444 2.754 0 4.08.444 1.325 1.308 2.48 2.47 3.3 1.162.819 2.561 1.26 3.997 1.26s2.835-.441 3.997-1.26c1.162-.82 2.026-1.975 2.47-3.3.444-1.326.444-2.754 0-4.08-.444-1.325-1.308-2.48-2.47-3.3C22.835 1.441 21.436 1 20 1z"/></clipPath></defs><path d="M20 1c-1.436 0-2.835.441-3.997 1.26-1.162.82-2.026 1.975-2.47 3.3-.444 1.326-.444 2.754 0 4.08.444 1.325 1.308 2.48 2.47 3.3 1.162.819 2.561 1.26 3.997 1.26s2.835-.441 3.997-1.26c1.162-.82 2.026-1.975 2.47-3.3.444-1.326.444-2.754 0-4.08-.444-1.325-1.308-2.48-2.47-3.3C22.835 1.441 21.436 1 20 1z" fill="#232f3e" stroke="#ffffff" stroke-width=".5" stroke-miterlimit="10"/><path d="M6.5 29c1-8.7 7.3-15.2 14-14.8 6.2.3 11.8 6.9 13 14.8" fill="#232f3e" stroke="#ffffff" stroke-width=".5" stroke-miterlimit="10"/><path clip-path="url(#clip_frame14_path_2)" d="M4.4-1.417s9.1 4.46 17.7 0c8.6-4.459 14.7 0 14.7 0V29.8H4.4V-1.417z" fill="#ffffff" stroke="#ffffff" stroke-width=".25" stroke-dasharray="0,128.52853046861358" stroke-dashoffset="128.52853" stroke-miterlimit="10"/><path clip-path="url(#clip_frame14_path_5)" d="M4.4-1.253s9.1 4.436 17.7 0 14.7 0 14.7 0V29.8H4.4V-1.253z" fill="#ffffff" stroke="#ffffff" stroke-width=".25" stroke-miterlimit="10"/></g><g transform="translate(600)"><defs><clipPath id="clip_frame15_path_2"><path d="M6.5 29c1-8.7 7.3-15.2 14-14.8 6.2.3 11.8 6.9 13 14.8"/></clipPath><clipPath id="clip_frame15_path_5"><path d="M20 1c-1.436 0-2.835.441-3.997 1.26-1.162.82-2.026 1.975-2.47 3.3-.444 1.326-.444 2.754 0 4.08.444 1.325 1.308 2.48 2.47 3.3 1.162.819 2.561 1.26 3.997 1.26s2.835-.441 3.997-1.26c1.162-.82 2.026-1.975 2.47-3.3.444-1.326.444-2.754 0-4.08-.444-1.325-1.308-2.48-2.47-3.3C22.835 1.441 21.436 1 20 1z"/></clipPath></defs><path d="M20 1c-1.436 0-2.835.441-3.997 1.26-1.162.82-2.026 1.975-2.47 3.3-.444 1.326-.444 2.754 0 4.08.444 1.325 1.308 2.48 2.47 3.3 1.162.819 2.561 1.26 3.997 1.26s2.835-.441 3.997-1.26c1.162-.82 2.026-1.975 2.47-3.3.444-1.326.444-2.754 0-4.08-.444-1.325-1.308-2.48-2.47-3.3C22.835 1.441 21.436 1 20 1z" fill="#232f3e" stroke="#ffffff" stroke-width=".5" stroke-miterlimit="10"/><path d="M6.5 29c1-8.7 7.3-15.2 14-14.8 6.2.3 11.8 6.9 13 14.8" fill="#232f3e" stroke="#ffffff" stroke-width=".5" stroke-miterlimit="10"/><path clip-path="url(#clip_frame15_path_2)" d="M4.4-1.876s9.1 4.525 17.7 0 14.7 0 14.7 0V29.8H4.4V-1.876z" fill="#ffffff" stroke="#ffffff" stroke-width=".25" stroke-dasharray="0,129.48317959519252" stroke-dashoffset="129.48318" stroke-miterlimit="10"/><path clip-path="url(#clip_frame15_path_5)" d="M4.4-1.792s9.1 4.514 17.7 0c8.6-4.513 14.7 0 14.7 0V29.8H4.4V-1.792z" fill="#ffffff" stroke="#ffffff" stroke-width=".25" stroke-miterlimit="10"/></g><g transform="translate(640)"><defs><clipPath id="clip_frame16_path_2"><path d="M6.5 29c1-8.7 7.3-15.2 14-14.8 6.2.3 11.8 6.9 13 14.8"/></clipPath><clipPath id="clip_frame16_path_5"><path d="M20 1c-1.436 0-2.835.441-3.997 1.26-1.162.82-2.026 1.975-2.47 3.3-.444 1.326-.444 2.754 0 4.08.444 1.325 1.308 2.48 2.47 3.3 1.162.819 2.561 1.26 3.997 1.26s2.835-.441 3.997-1.26c1.162-.82 2.026-1.975 2.47-3.3.444-1.326.444-2.754 0-4.08-.444-1.325-1.308-2.48-2.47-3.3C22.835 1.441 21.436 1 20 1z"/></clipPath></defs><path d="M20 1c-1.436 0-2.835.441-3.997 1.26-1.162.82-2.026 1.975-2.47 3.3-.444 1.326-.444 2.754 0 4.08.444 1.325 1.308 2.48 2.47 3.3 1.162.819 2.561 1.26 3.997 1.26s2.835-.441 3.997-1.26c1.162-.82 2.026-1.975 2.47-3.3.444-1.326.444-2.754 0-4.08-.444-1.325-1.308-2.48-2.47-3.3C22.835 1.441 21.436 1 20 1z" fill="#232f3e" stroke="#ffffff" stroke-width=".5" stroke-miterlimit="10"/><path d="M6.5 29c1-8.7 7.3-15.2 14-14.8 6.2.3 11.8 6.9 13 14.8" fill="#232f3e" stroke="#ffffff" stroke-width=".5" stroke-miterlimit="10"/><path clip-path="url(#clip_frame16_path_2)" d="M4.4-2.178s9.1 4.568 17.7 0c8.6-4.569 14.7 0 14.7 0V29.8H4.4V-2.178z" fill="#ffffff" stroke="#ffffff" stroke-width=".25" stroke-dasharray="0,130.1128196512808" stroke-dashoffset="130.11282" stroke-miterlimit="10"/><path clip-path="url(#clip_frame16_path_5)" d="M4.4-2.144s9.1 4.564 17.7 0c8.6-4.563 14.7 0 14.7 0V29.8H4.4V-2.144z" fill="#ffffff" stroke="#ffffff" stroke-width=".25" stroke-miterlimit="10"/></g><g transform="translate(680)"><defs><clipPath id="clip_frame17_path_2"><path d="M6.5 29c1-8.7 7.3-15.2 14-14.8 6.2.3 11.8 6.9 13 14.8"/></clipPath><clipPath id="clip_frame17_path_5"><path d="M20 1c-1.436 0-2.835.441-3.997 1.26-1.162.82-2.026 1.975-2.47 3.3-.444 1.326-.444 2.754 0 4.08.444 1.325 1.308 2.48 2.47 3.3 1.162.819 2.561 1.26 3.997 1.26s2.835-.441 3.997-1.26c1.162-.82 2.026-1.975 2.47-3.3.444-1.326.444-2.754 0-4.08-.444-1.325-1.308-2.48-2.47-3.3C22.835 1.441 21.436 1 20 1z"/></clipPath></defs><path d="M20 1c-1.436 0-2.835.441-3.997 1.26-1.162.82-2.026 1.975-2.47 3.3-.444 1.326-.444 2.754 0 4.08.444 1.325 1.308 2.48 2.47 3.3 1.162.819 2.561 1.26 3.997 1.26s2.835-.441 3.997-1.26c1.162-.82 2.026-1.975 2.47-3.3.444-1.326.444-2.754 0-4.08-.444-1.325-1.308-2.48-2.47-3.3C22.835 1.441 21.436 1 20 1z" fill="#232f3e" stroke="#ffffff" stroke-width=".5" stroke-miterlimit="10"/><path d="M6.5 29c1-8.7 7.3-15.2 14-14.8 6.2.3 11.8 6.9 13 14.8" fill="#232f3e" stroke="#ffffff" stroke-width=".5" stroke-miterlimit="10"/><path clip-path="url(#clip_frame17_path_2)" d="M4.4-2.347s9.1 4.592 17.7 0c8.6-4.593 14.7 0 14.7 0V29.8H4.4V-2.347z" fill="#ffffff" stroke="#ffffff" stroke-width=".25" stroke-dasharray="0,130.4641749796833" stroke-dashoffset="130.464175" stroke-miterlimit="10"/><path clip-path="url(#clip_frame17_path_5)" d="M4.4-2.339s9.1 4.591 17.7 0 14.7 0 14.7 0V29.8H4.4V-2.339z" fill="#ffffff" stroke="#ffffff" stroke-width=".25" stroke-miterlimit="10"/></g><g transform="translate(720)"><defs><clipPath id="clip_frame18_path_2"><path d="M6.5 29c1-8.7 7.3-15.2 14-14.8 6.2.3 11.8 6.9 13 14.8"/></clipPath><clipPath id="clip_frame18_path_5"><path d="M20 1c-1.436 0-2.835.441-3.997 1.26-1.162.82-2.026 1.975-2.47 3.3-.444 1.326-.444 2.754 0 4.08.444 1.325 1.308 2.48 2.47 3.3 1.162.819 2.561 1.26 3.997 1.26s2.835-.441 3.997-1.26c1.162-.82 2.026-1.975 2.47-3.3.444-1.326.444-2.754 0-4.08-.444-1.325-1.308-2.48-2.47-3.3C22.835 1.441 21.436 1 20 1z"/></clipPath></defs><path d="M20 1c-1.436 0-2.835.441-3.997 1.26-1.162.82-2.026 1.975-2.47 3.3-.444 1.326-.444 2.754 0 4.08.444 1.325 1.308 2.48 2.47 3.3 1.162.819 2.561 1.26 3.997 1.26s2.835-.441 3.997-1.26c1.162-.82 2.026-1.975 2.47-3.3.444-1.326.444-2.754 0-4.08-.444-1.325-1.308-2.48-2.47-3.3C22.835 1.441 21.436 1 20 1z" fill="#232f3e" stroke="#ffffff" stroke-width=".5" stroke-miterlimit="10"/><path d="M6.5 29c1-8.7 7.3-15.2 14-14.8 6.2.3 11.8 6.9 13 14.8" fill="#232f3e" stroke="#ffffff" stroke-width=".5" stroke-miterlimit="10"/><path clip-path="url(#clip_frame18_path_2)" d="M4.4-2.4s9.1 4.6 17.7 0 14.7 0 14.7 0v32.2H4.4V-2.4z" fill="#ffffff" stroke="#ffffff" stroke-width=".25" stroke-dasharray="0,130.5743134026025" stroke-dashoffset="130.574313" stroke-miterlimit="10"/><path clip-path="url(#clip_frame18_path_5)" d="M4.4-2.4s9.1 4.6 17.7 0 14.7 0 14.7 0v32.2H4.4V-2.4z" fill="#ffffff" stroke="#ffffff" stroke-width=".25" stroke-miterlimit="10"/></g></svg>