<svg xmlns="http://www.w3.org/2000/svg" viewBox="0 0 760 30" width="760" height="30"><g><defs><clipPath id="clip_frame0_path_3"><path d="M24.7 29H6V10.3C6 5.1 10.1 1 15.3 1h9.3c5.2 0 9.3 4.1 9.3 9.3v9.3c.1 5.3-4 9.4-9.2 9.4z"/></clipPath></defs><path d="M24.7 29H6V10.3C6 5.1 10.1 1 15.3 1h9.3c5.2 0 9.3 4.1 9.3 9.3v9.3c.1 5.3-4 9.4-9.2 9.4z" fill="#232f3e" stroke="#ffffff" stroke-width=".5" stroke-miterlimit="10"/><path clip-path="url(#clip_frame0_path_3)" d="M4.4 29.1s9.1.1 17.7 0 14.7 0 14.7 0v.7H4.4v-.7z" fill="#ffffff" stroke="#ffffff" stroke-width=".25" stroke-miterlimit="10"/><path d="M4.9 8.7h26.2m-26.2 7H28m-23.3 7H25" fill="#232f3e" stroke="#232f3e" stroke-width="3" stroke-dasharray="0,26.200000000000003" stroke-dashoffset="26.2" stroke-miterlimit="10"/></g><g transform="translate(40)"><defs><clipPath id="clip_frame1_path_3"><path d="M24.7 29H6V10.3C6 5.1 10.1 1 15.3 1h9.3c5.2 0 9.3 4.1 9.3 9.3v9.3c.1 5.3-4 9.4-9.2 9.4z"/></clipPath></defs><path d="M24.7 29H6V10.3C6 5.1 10.1 1 15.3 1h9.3c5.2 0 9.3 4.1 9.3 9.3v9.3c.1 5.3-4 9.4-9.2 9.4z" fill="#232f3e" stroke="#ffffff" stroke-width=".5" stroke-miterlimit="10"/><path clip-path="url(#clip_frame1_path_3)" d="M4.4 28.537s9.1.207 17.7 0 14.7 0 14.7 0v1.261H4.4v-1.261z" fill="#ffffff" stroke="#ffffff" stroke-width=".25" stroke-miterlimit="10"/><path d="M4.9 8.7h26.2m-26.2 7H28m-23.3 7H25" fill="#232f3e" stroke="#232f3e" stroke-width="3" stroke-dasharray="0,26.200000000000003" stroke-dashoffset="26.2" stroke-miterlimit="10"/></g><g transform="translate(80)"><defs><clipPath id="clip_frame2_path_3"><path d="M24.7 29H6V10.3C6 5.1 10.1 1 15.3 1h9.3c5.2 0 9.3 4.1 9.3 9.3v9.3c.1 5.3-4 9.4-9.2 9.4z"/></clipPath></defs><path d="M24.7 29H6V10.3C6 5.1 10.1 1 15.3 1h9.3c5.2 0 9.3 4.1 9.3 9.3v9.3c.1 5.3-4 9.4-9.2 9.4z" fill="#232f3e" stroke="#ffffff" stroke-width=".5" stroke-miterlimit="10"/><path clip-path="url(#clip_frame2_path_3)" d="M4.4 26.326s9.1.627 17.7 0c8.6-.628 14.7 0 14.7 0v3.465H4.4v-3.465z" fill="#ffffff" stroke="#ffffff" stroke-width=".25" stroke-miterlimit="10"/><path d="M4.9 8.7h26.2m-26.2 7H28m-23.3 7H25" fill="#232f3e" stroke="#232f3e" stroke-width="3" stroke-dasharray="0,26.200000000000003" stroke-dashoffset="26.2" stroke-miterlimit="10"/></g><g transform="translate(120)"><defs><clipPath id="clip_frame3_path_3"><path d="M24.7 29H6V10.3C6 5.1 10.1 1 15.3 1h9.3c5.2 0 9.3 4.1 9.3 9.3v9.3c.1 5.3-4 9.4-9.2 9.4z"/></clipPath></defs><path d="M24.7 29H6V10.3C6 5.1 10.1 1 15.3 1h9.3c5.2 0 9.3 4.1 9.3 9.3v9.3c.1 5.3-4 9.4-9.2 9.4z" fill="#232f3e" stroke="#ffffff" stroke-width=".5" stroke-miterlimit="10"/><path clip-path="url(#clip_frame3_path_3)" d="M4.4 21.387s9.1 1.567 17.7 0 14.7 0 14.7 0v8.389H4.4v-8.389z" fill="#ffffff" stroke="#ffffff" stroke-width=".25" stroke-miterlimit="10"/><path d="M4.9 8.7h26.2m-26.2 7H28m-23.3 7H25" fill="#232f3e" stroke="#232f3e" stroke-width="3" stroke-dasharray="0,26.200000000000003" stroke-dashoffset="26.2" stroke-miterlimit="10"/></g><g transform="translate(160)"><defs><clipPath id="clip_frame4_path_3"><path d="M24.7 29H6V10.3C6 5.1 10.1 1 15.3 1h9.3c5.2 0 9.3 4.1 9.3 9.3v9.3c.1 5.3-4 9.4-9.2 9.4z"/></clipPath></defs><path d="M24.7 29H6V10.3C6 5.1 10.1 1 15.3 1h9.3c5.2 0 9.3 4.1 9.3 9.3v9.3c.1 5.3-4 9.4-9.2 9.4z" fill="#232f3e" stroke="#ffffff" stroke-width=".5" stroke-miterlimit="10"/><path clip-path="url(#clip_frame4_path_3)" d="M4.4 14.194s9.1 2.935 17.7 0 14.7 0 14.7 0v15.56H4.4v-15.56z" fill="#ffffff" stroke="#ffffff" stroke-width=".25" stroke-miterlimit="10"/><path d="M4.9 8.7h26.2m-26.2 7H28m-23.3 7H25" fill="#232f3e" stroke="#232f3e" stroke-width="3" stroke-dasharray="0,26.200000000000003" stroke-dashoffset="26.2" stroke-miterlimit="10"/></g><g transform="translate(200)"><defs><clipPath id="clip_frame5_path_3"><path d="M24.7 29H6V10.3C6 5.1 10.1 1 15.3 1h9.3c5.2 0 9.3 4.1 9.3 9.3v9.3c.1 5.3-4 9.4-9.2 9.4z"/></clipPath></defs><path d="M24.7 29H6V10.3C6 5.1 10.1 1 15.3 1h9.3c5.2 0 9.3 4.1 9.3 9.3v9.3c.1 5.3-4 9.4-9.2 9.4z" fill="#232f3e" stroke="#ffffff" stroke-width=".5" stroke-miterlimit="10"/><path clip-path="url(#clip_frame5_path_3)" d="M4.4 8.032s9.1 4.107 17.7 0c8.6-4.106 14.7 0 14.7 0v21.703H4.4V8.032z" fill="#ffffff" stroke="#ffffff" stroke-width=".25" stroke-miterlimit="10"/><path d="M4.9 8.7h26.2m-26.2 7H28m-23.3 7H25" fill="#232f3e" stroke="#232f3e" stroke-width="3" stroke-dasharray="0,26.200000000000003" stroke-dashoffset="26.2" stroke-miterlimit="10"/></g><g transform="translate(240)"><defs><clipPath id="clip_frame6_path_3"><path d="M24.7 29H6V10.3C6 5.1 10.1 1 15.3 1h9.3c5.2 0 9.3 4.1 9.3 9.3v9.3c.1 5.3-4 9.4-9.2 9.4z"/></clipPath></defs><path d="M24.7 29H6V10.3C6 5.1 10.1 1 15.3 1h9.3c5.2 0 9.3 4.1 9.3 9.3v9.3c.1 5.3-4 9.4-9.2 9.4z" fill="#232f3e" stroke="#ffffff" stroke-width=".5" stroke-miterlimit="10"/><path clip-path="url(#clip_frame6_path_3)" d="M4.4 3.817s9.1 4.908 17.7 0c8.6-4.909 14.7 0 14.7 0v25.905H4.4V3.817z" fill="#ffffff" stroke="#ffffff" stroke-width=".25" stroke-miterlimit="10"/><path d="M4.9 8.7h26.2m-26.2 7H28m-23.3 7H25" fill="#232f3e" stroke="#232f3e" stroke-width="3" stroke-dasharray="0,26.200000000000003" stroke-dashoffset="26.2" stroke-miterlimit="10"/></g><g transform="translate(280)"><defs><clipPath id="clip_frame7_path_3"><path d="M24.7 29H6V10.3C6 5.1 10.1 1 15.3 1h9.3c5.2 0 9.3 4.1 9.3 9.3v9.3c.1 5.3-4 9.4-9.2 9.4z"/></clipPath></defs><path d="M24.7 29H6V10.3C6 5.1 10.1 1 15.3 1h9.3c5.2 0 9.3 4.1 9.3 9.3v9.3c.1 5.3-4 9.4-9.2 9.4z" fill="#232f3e" stroke="#ffffff" stroke-width=".5" stroke-miterlimit="10"/><path clip-path="url(#clip_frame7_path_3)" d="M4.4.987s9.1 5.447 17.7 0c8.6-5.446 14.7 0 14.7 0v28.727H4.4V.987z" fill="#ffffff" stroke="#ffffff" stroke-width=".25" stroke-miterlimit="10"/><path d="M4.9 8.7h26.2m-26.2 7H28m-23.3 7H25" fill="#232f3e" stroke="#232f3e" stroke-width="3" stroke-dasharray="0,26.200000000000003" stroke-dashoffset="26.2" stroke-miterlimit="10"/></g><g transform="translate(320)"><defs><clipPath id="clip_frame8_path_3"><path d="M24.7 29H6V10.3C6 5.1 10.1 1 15.3 1h9.3c5.2 0 9.3 4.1 9.3 9.3v9.3c.1 5.3-4 9.4-9.2 9.4z"/></clipPath></defs><path d="M24.7 29H6V10.3C6 5.1 10.1 1 15.3 1h9.3c5.2 0 9.3 4.1 9.3 9.3v9.3c.1 5.3-4 9.4-9.2 9.4z" fill="#232f3e" stroke="#ffffff" stroke-width=".5" stroke-miterlimit="10"/><path clip-path="url(#clip_frame8_path_3)" d="M4.4-.917s9.1 5.809 17.7 0 14.7 0 14.7 0v30.625H4.4V-.917z" fill="#ffffff" stroke="#ffffff" stroke-width=".25" stroke-miterlimit="10"/><path d="M4.9 8.7h26.2m-26.2 7H28m-23.3 7H25" fill="#232f3e" stroke="#232f3e" stroke-width="3" stroke-dasharray="0,26.200000000000003" stroke-dashoffset="26.2" stroke-miterlimit="10"/></g><g transform="translate(360)"><defs><clipPath id="clip_frame9_path_3"><path d="M24.7 29H6V10.3C6 5.1 10.1 1 15.3 1h9.3c5.2 0 9.3 4.1 9.3 9.3v9.3c.1 5.3-4 9.4-9.2 9.4z"/></clipPath></defs><path d="M24.7 29H6V10.3C6 5.1 10.1 1 15.3 1h9.3c5.2 0 9.3 4.1 9.3 9.3v9.3c.1 5.3-4 9.4-9.2 9.4z" fill="#232f3e" stroke="#ffffff" stroke-width=".5" stroke-miterlimit="10"/><path clip-path="url(#clip_frame9_path_3)" d="M4.4-2.175s9.1 6.048 17.7 0 14.7 0 14.7 0v31.879H4.4V-2.175z" fill="#ffffff" stroke="#ffffff" stroke-width=".25" stroke-miterlimit="10"/><path d="M4.9 8.7h26.2m-26.2 7H28m-23.3 7H25" fill="#232f3e" stroke="#232f3e" stroke-width="3" stroke-dasharray="0,26.200000000000003" stroke-dashoffset="26.2" stroke-miterlimit="10"/></g><g transform="translate(400)"><defs><clipPath id="clip_frame10_path_3"><path d="M24.7 29H6V10.3C6 5.1 10.1 1 15.3 1h9.3c5.2 0 9.3 4.1 9.3 9.3v9.3c.1 5.3-4 9.4-9.2 9.4z"/></clipPath></defs><path d="M24.7 29H6V10.3C6 5.1 10.1 1 15.3 1h9.3c5.2 0 9.3 4.1 9.3 9.3v9.3c.1 5.3-4 9.4-9.2 9.4z" fill="#232f3e" stroke="#ffffff" stroke-width=".5" stroke-miterlimit="10"/><path clip-path="url(#clip_frame10_path_3)" d="M4.4-2.957s9.1 6.196 17.7 0c8.6-6.197 14.7 0 14.7 0v32.659H4.4V-2.957z" fill="#ffffff" stroke="#ffffff" stroke-width=".25" stroke-miterlimit="10"/><path d="M4.9 8.7h26.2m-26.2 7H28m-23.3 7H25" fill="#232f3e" stroke="#232f3e" stroke-width="3" stroke-dasharray="0,26.200000000000003" stroke-dashoffset="26.2" stroke-miterlimit="10"/></g><g transform="translate(440)"><defs><clipPath id="clip_frame11_path_3"><path d="M24.7 29H6V10.3C6 5.1 10.1 1 15.3 1h9.3c5.2 0 9.3 4.1 9.3 9.3v9.3c.1 5.3-4 9.4-9.2 9.4z"/></clipPath></defs><path d="M24.7 29H6V10.3C6 5.1 10.1 1 15.3 1h9.3c5.2 0 9.3 4.1 9.3 9.3v9.3c.1 5.3-4 9.4-9.2 9.4z" fill="#232f3e" stroke="#ffffff" stroke-width=".5" stroke-miterlimit="10"/><path clip-path="url(#clip_frame11_path_3)" d="M4.4-3.374s9.1 6.276 17.7 0 14.7 0 14.7 0V29.7H4.4V-3.374z" fill="#ffffff" stroke="#ffffff" stroke-width=".25" stroke-miterlimit="10"/><path d="M4.9 8.7h26.2m-26.2 7H28m-23.3 7H25" fill="#232f3e" stroke="#232f3e" stroke-width="3" stroke-dasharray="0,26.200000000000003" stroke-dashoffset="26.2" stroke-miterlimit="10"/></g><g transform="translate(480)"><defs><clipPath id="clip_frame12_path_3"><path d="M24.7 29H6V10.3C6 5.1 10.1 1 15.3 1h9.3c5.2 0 9.3 4.1 9.3 9.3v9.3c.1 5.3-4 9.4-9.2 9.4z"/></clipPath></defs><path d="M24.7 29H6V10.3C6 5.1 10.1 1 15.3 1h9.3c5.2 0 9.3 4.1 9.3 9.3v9.3c.1 5.3-4 9.4-9.2 9.4z" fill="#232f3e" stroke="#ffffff" stroke-width=".5" stroke-miterlimit="10"/><path clip-path="url(#clip_frame12_path_3)" d="M4.4-3.5s9.1 6.3 17.7 0 14.7 0 14.7 0v33.2H4.4V-3.5z" fill="#ffffff" stroke="#ffffff" stroke-width=".25" stroke-miterlimit="10"/><path d="M4.9 8.7h26.2m-26.2 7H28m-23.3 7H25" fill="#232f3e" stroke="#232f3e" stroke-width="3" stroke-dasharray="0,26.200000000000003" stroke-dashoffset="26.2" stroke-miterlimit="10"/></g><g transform="translate(520)"><defs><clipPath id="clip_frame13_path_3"><path d="M24.7 29H6V10.3C6 5.1 10.1 1 15.3 1h9.3c5.2 0 9.3 4.1 9.3 9.3v9.3c.1 5.3-4 9.4-9.2 9.4z"/></clipPath></defs><path d="M24.7 29H6V10.3C6 5.1 10.1 1 15.3 1h9.3c5.2 0 9.3 4.1 9.3 9.3v9.3c.1 5.3-4 9.4-9.2 9.4z" fill="#232f3e" stroke="#ffffff" stroke-width=".5" stroke-miterlimit="10"/><path clip-path="url(#clip_frame13_path_3)" d="M4.4-3.5s9.1 6.3 17.7 0 14.7 0 14.7 0v33.2H4.4V-3.5z" fill="#ffffff" stroke="#ffffff" stroke-width=".25" stroke-miterlimit="10"/><path d="M4.9 8.7h26.2m-26.2 7H28m-23.3 7H25" fill="#232f3e" stroke="#232f3e" stroke-width="3" stroke-dasharray="2.229763618065447,23.970236381934555" stroke-dashoffset="26.2" stroke-miterlimit="10"/></g><g transform="translate(560)"><defs><clipPath id="clip_frame14_path_3"><path d="M24.7 29H6V10.3C6 5.1 10.1 1 15.3 1h9.3c5.2 0 9.3 4.1 9.3 9.3v9.3c.1 5.3-4 9.4-9.2 9.4z"/></clipPath></defs><path d="M24.7 29H6V10.3C6 5.1 10.1 1 15.3 1h9.3c5.2 0 9.3 4.1 9.3 9.3v9.3c.1 5.3-4 9.4-9.2 9.4z" fill="#232f3e" stroke="#ffffff" stroke-width=".5" stroke-miterlimit="10"/><path clip-path="url(#clip_frame14_path_3)" d="M4.4-3.5s9.1 6.3 17.7 0 14.7 0 14.7 0v33.2H4.4V-3.5z" fill="#ffffff" stroke="#ffffff" stroke-width=".25" stroke-miterlimit="10"/><path d="M4.9 8.7h26.2m-26.2 7H28m-23.3 7H25" fill="#232f3e" stroke="#232f3e" stroke-width="3" stroke-dasharray="11.979995583202038,14.220004416797964" stroke-dashoffset="26.2" stroke-miterlimit="10"/></g><g transform="translate(600)"><defs><clipPath id="clip_frame15_path_3"><path d="M24.7 29H6V10.3C6 5.1 10.1 1 15.3 1h9.3c5.2 0 9.3 4.1 9.3 9.3v9.3c.1 5.3-4 9.4-9.2 9.4z"/></clipPath></defs><path d="M24.7 29H6V10.3C6 5.1 10.1 1 15.3 1h9.3c5.2 0 9.3 4.1 9.3 9.3v9.3c.1 5.3-4 9.4-9.2 9.4z" fill="#232f3e" stroke="#ffffff" stroke-width=".5" stroke-miterlimit="10"/><path clip-path="url(#clip_frame15_path_3)" d="M4.4-3.5s9.1 6.3 17.7 0 14.7 0 14.7 0v33.2H4.4V-3.5z" fill="#ffffff" stroke="#ffffff" stroke-width=".25" stroke-miterlimit="10"/><path d="M4.9 8.7h26.2m-26.2 7H28m-23.3 7H25" fill="#232f3e" stroke="#232f3e" stroke-width="3" stroke-dasharray="20.319706351244385,5.88029364875562" stroke-dashoffset="26.2" stroke-miterlimit="10"/></g><g transform="translate(640)"><defs><clipPath id="clip_frame16_path_3"><path d="M24.7 29H6V10.3C6 5.1 10.1 1 15.3 1h9.3c5.2 0 9.3 4.1 9.3 9.3v9.3c.1 5.3-4 9.4-9.2 9.4z"/></clipPath></defs><path d="M24.7 29H6V10.3C6 5.1 10.1 1 15.3 1h9.3c5.2 0 9.3 4.1 9.3 9.3v9.3c.1 5.3-4 9.4-9.2 9.4z" fill="#232f3e" stroke="#ffffff" stroke-width=".5" stroke-miterlimit="10"/><path clip-path="url(#clip_frame16_path_3)" d="M4.4-3.5s9.1 6.3 17.7 0 14.7 0 14.7 0v33.2H4.4V-3.5z" fill="#ffffff" stroke="#ffffff" stroke-width=".25" stroke-miterlimit="10"/><path d="M4.9 8.7h26.2m-26.2 7H28m-23.3 7H25" fill="#232f3e" stroke="#232f3e" stroke-width="3" stroke-dasharray="24.124325525849013,2.0756744741509907" stroke-dashoffset="26.2" stroke-miterlimit="10"/></g><g transform="translate(680)"><defs><clipPath id="clip_frame17_path_3"><path d="M24.7 29H6V10.3C6 5.1 10.1 1 15.3 1h9.3c5.2 0 9.3 4.1 9.3 9.3v9.3c.1 5.3-4 9.4-9.2 9.4z"/></clipPath></defs><path d="M24.7 29H6V10.3C6 5.1 10.1 1 15.3 1h9.3c5.2 0 9.3 4.1 9.3 9.3v9.3c.1 5.3-4 9.4-9.2 9.4z" fill="#232f3e" stroke="#ffffff" stroke-width=".5" stroke-miterlimit="10"/><path clip-path="url(#clip_frame17_path_3)" d="M4.4-3.5s9.1 6.3 17.7 0 14.7 0 14.7 0v33.2H4.4V-3.5z" fill="#ffffff" stroke="#ffffff" stroke-width=".25" stroke-miterlimit="10"/><path d="M4.9 8.7h26.2m-26.2 7H28m-23.3 7H25" fill="#232f3e" stroke="#232f3e" stroke-width="3" stroke-dasharray="25.763996254263752,0.4360037457362492" stroke-dashoffset="26.2" stroke-miterlimit="10"/></g><g transform="translate(720)"><defs><clipPath id="clip_frame18_path_3"><path d="M24.7 29H6V10.3C6 5.1 10.1 1 15.3 1h9.3c5.2 0 9.3 4.1 9.3 9.3v9.3c.1 5.3-4 9.4-9.2 9.4z"/></clipPath></defs><path d="M24.7 29H6V10.3C6 5.1 10.1 1 15.3 1h9.3c5.2 0 9.3 4.1 9.3 9.3v9.3c.1 5.3-4 9.4-9.2 9.4z" fill="#232f3e" stroke="#ffffff" stroke-width=".5" stroke-miterlimit="10"/><path clip-path="url(#clip_frame18_path_3)" d="M4.4-3.5s9.1 6.3 17.7 0 14.7 0 14.7 0v33.2H4.4V-3.5z" fill="#ffffff" stroke="#ffffff" stroke-width=".25" stroke-miterlimit="10"/><path d="M4.9 8.7h26.2m-26.2 7H28m-23.3 7H25" fill="#232f3e" stroke="#232f3e" stroke-width="3" stroke-miterlimit="10"/></g></svg>