<svg xmlns="http://www.w3.org/2000/svg" viewBox="0 0 760 30" width="760" height="30"><g><defs><clipPath id="clip_frame0_path_4"><path d="M12.3 26.6h20.3M9.1 1H5m10.3 26.6c-.159 0-.312.074-.424.205-.113.131-.176.309-.176.495s.063.364.176.495c.112.131.265.205.424.205.159 0 .312-.074.424-.205.113-.131.176-.309.176-.495s-.063-.364-.176-.495c-.112-.131-.265-.205-.424-.205zm14.2 0c-.159 0-.312.074-.424.205-.113.131-.176.309-.176.495s.063.364.176.495c.112.131.265.205.424.205.159 0 .312-.074.424-.205.113-.131.176-.309.176-.495s-.063-.364-.176-.495c-.112-.131-.265-.205-.424-.205zm-17.2-5.7h20.3L35 5.5H9.9zM9.9 5.5L9.1 1"/></clipPath></defs><path d="M12.3 26.6h20.3M9.1 1H5m10.3 26.6c-.159 0-.312.074-.424.205-.113.131-.176.309-.176.495s.063.364.176.495c.112.131.265.205.424.205.159 0 .312-.074.424-.205.113-.131.176-.309.176-.495s-.063-.364-.176-.495c-.112-.131-.265-.205-.424-.205zm14.2 0c-.159 0-.312.074-.424.205-.113.131-.176.309-.176.495s.063.364.176.495c.112.131.265.205.424.205.159 0 .312-.074.424-.205.113-.131.176-.309.176-.495s-.063-.364-.176-.495c-.112-.131-.265-.205-.424-.205zm-17.2-5.7h20.3L35 5.5H9.9zM9.9 5.5L9.1 1" fill="#232f3e" stroke="#ffffff" stroke-width=".5" stroke-miterlimit="10"/><path d="M12.3 26.6c-1.2 0-2-1-2-2.4s.8-2.4 2-2.4" fill="#232f3e" stroke="#ffffff" stroke-width=".5" stroke-miterlimit="10"/><path clip-path="url(#clip_frame0_path_4)" d="M6.4 22.3s9.1.1 17.7 0 14.7 0 14.7 0v.7H6.4v-.7z" fill="#ffffff" stroke="#ffffff" stroke-width=".25" stroke-miterlimit="10"/><path d="M10.9 7.6h22.9m-21.9 6H33m-20.3 5.9H32m-16.7 0V7.6m7.1 11.9V7.6m7.1 11.9V7.6" fill="#232f3e" stroke="#232f3e" stroke-width="1.5" stroke-dasharray="0,22.9" stroke-dashoffset="22.9" stroke-miterlimit="10"/></g><g transform="translate(40)"><defs><clipPath id="clip_frame1_path_4"><path d="M12.3 26.6h20.3M9.1 1H5m10.3 26.6c-.159 0-.312.074-.424.205-.113.131-.176.309-.176.495s.063.364.176.495c.112.131.265.205.424.205.159 0 .312-.074.424-.205.113-.131.176-.309.176-.495s-.063-.364-.176-.495c-.112-.131-.265-.205-.424-.205zm14.2 0c-.159 0-.312.074-.424.205-.113.131-.176.309-.176.495s.063.364.176.495c.112.131.265.205.424.205.159 0 .312-.074.424-.205.113-.131.176-.309.176-.495s-.063-.364-.176-.495c-.112-.131-.265-.205-.424-.205zm-17.2-5.7h20.3L35 5.5H9.9zM9.9 5.5L9.1 1"/></clipPath></defs><path d="M12.3 26.6h20.3M9.1 1H5m10.3 26.6c-.159 0-.312.074-.424.205-.113.131-.176.309-.176.495s.063.364.176.495c.112.131.265.205.424.205.159 0 .312-.074.424-.205.113-.131.176-.309.176-.495s-.063-.364-.176-.495c-.112-.131-.265-.205-.424-.205zm14.2 0c-.159 0-.312.074-.424.205-.113.131-.176.309-.176.495s.063.364.176.495c.112.131.265.205.424.205.159 0 .312-.074.424-.205.113-.131.176-.309.176-.495s-.063-.364-.176-.495c-.112-.131-.265-.205-.424-.205zm-17.2-5.7h20.3L35 5.5H9.9zM9.9 5.5L9.1 1" fill="#232f3e" stroke="#ffffff" stroke-width=".5" stroke-miterlimit="10"/><path d="M12.3 26.6c-1.2 0-2-1-2-2.4s.8-2.4 2-2.4" fill="#232f3e" stroke="#ffffff" stroke-width=".5" stroke-miterlimit="10"/><path clip-path="url(#clip_frame1_path_4)" d="M6.4 21.873s9.1.182 17.7 0c8.6-.181 14.7 0 14.7 0V23H6.4v-1.127z" fill="#ffffff" stroke="#ffffff" stroke-width=".25" stroke-miterlimit="10"/><path d="M10.9 7.6h22.9m-21.9 6H33m-20.3 5.9H32m-16.7 0V7.6m7.1 11.9V7.6m7.1 11.9V7.6" fill="#232f3e" stroke="#232f3e" stroke-width="1.5" stroke-dasharray="0,22.9" stroke-dashoffset="22.9" stroke-miterlimit="10"/></g><g transform="translate(80)"><defs><clipPath id="clip_frame2_path_4"><path d="M12.3 26.6h20.3M9.1 1H5m10.3 26.6c-.159 0-.312.074-.424.205-.113.131-.176.309-.176.495s.063.364.176.495c.112.131.265.205.424.205.159 0 .312-.074.424-.205.113-.131.176-.309.176-.495s-.063-.364-.176-.495c-.112-.131-.265-.205-.424-.205zm14.2 0c-.159 0-.312.074-.424.205-.113.131-.176.309-.176.495s.063.364.176.495c.112.131.265.205.424.205.159 0 .312-.074.424-.205.113-.131.176-.309.176-.495s-.063-.364-.176-.495c-.112-.131-.265-.205-.424-.205zm-17.2-5.7h20.3L35 5.5H9.9zM9.9 5.5L9.1 1"/></clipPath></defs><path d="M12.3 26.6h20.3M9.1 1H5m10.3 26.6c-.159 0-.312.074-.424.205-.113.131-.176.309-.176.495s.063.364.176.495c.112.131.265.205.424.205.159 0 .312-.074.424-.205.113-.131.176-.309.176-.495s-.063-.364-.176-.495c-.112-.131-.265-.205-.424-.205zm14.2 0c-.159 0-.312.074-.424.205-.113.131-.176.309-.176.495s.063.364.176.495c.112.131.265.205.424.205.159 0 .312-.074.424-.205.113-.131.176-.309.176-.495s-.063-.364-.176-.495c-.112-.131-.265-.205-.424-.205zm-17.2-5.7h20.3L35 5.5H9.9zM9.9 5.5L9.1 1" fill="#232f3e" stroke="#ffffff" stroke-width=".5" stroke-miterlimit="10"/><path d="M12.3 26.6c-1.2 0-2-1-2-2.4s.8-2.4 2-2.4" fill="#232f3e" stroke="#ffffff" stroke-width=".5" stroke-miterlimit="10"/><path clip-path="url(#clip_frame2_path_4)" d="M6.4 20.198s9.1.5 17.7 0 14.7 0 14.7 0V23H6.4v-2.802z" fill="#ffffff" stroke="#ffffff" stroke-width=".25" stroke-miterlimit="10"/><path d="M10.9 7.6h22.9m-21.9 6H33m-20.3 5.9H32m-16.7 0V7.6m7.1 11.9V7.6m7.1 11.9V7.6" fill="#232f3e" stroke="#232f3e" stroke-width="1.5" stroke-dasharray="0,22.9" stroke-dashoffset="22.9" stroke-miterlimit="10"/></g><g transform="translate(120)"><defs><clipPath id="clip_frame3_path_4"><path d="M12.3 26.6h20.3M9.1 1H5m10.3 26.6c-.159 0-.312.074-.424.205-.113.131-.176.309-.176.495s.063.364.176.495c.112.131.265.205.424.205.159 0 .312-.074.424-.205.113-.131.176-.309.176-.495s-.063-.364-.176-.495c-.112-.131-.265-.205-.424-.205zm14.2 0c-.159 0-.312.074-.424.205-.113.131-.176.309-.176.495s.063.364.176.495c.112.131.265.205.424.205.159 0 .312-.074.424-.205.113-.131.176-.309.176-.495s-.063-.364-.176-.495c-.112-.131-.265-.205-.424-.205zm-17.2-5.7h20.3L35 5.5H9.9zM9.9 5.5L9.1 1"/></clipPath></defs><path d="M12.3 26.6h20.3M9.1 1H5m10.3 26.6c-.159 0-.312.074-.424.205-.113.131-.176.309-.176.495s.063.364.176.495c.112.131.265.205.424.205.159 0 .312-.074.424-.205.113-.131.176-.309.176-.495s-.063-.364-.176-.495c-.112-.131-.265-.205-.424-.205zm14.2 0c-.159 0-.312.074-.424.205-.113.131-.176.309-.176.495s.063.364.176.495c.112.131.265.205.424.205.159 0 .312-.074.424-.205.113-.131.176-.309.176-.495s-.063-.364-.176-.495c-.112-.131-.265-.205-.424-.205zm-17.2-5.7h20.3L35 5.5H9.9zM9.9 5.5L9.1 1" fill="#232f3e" stroke="#ffffff" stroke-width=".5" stroke-miterlimit="10"/><path d="M12.3 26.6c-1.2 0-2-1-2-2.4s.8-2.4 2-2.4" fill="#232f3e" stroke="#ffffff" stroke-width=".5" stroke-miterlimit="10"/><path clip-path="url(#clip_frame3_path_4)" d="M6.4 16.456s9.1 1.212 17.7 0 14.7 0 14.7 0V23H6.4v-6.544z" fill="#ffffff" stroke="#ffffff" stroke-width=".25" stroke-miterlimit="10"/><path d="M10.9 7.6h22.9m-21.9 6H33m-20.3 5.9H32m-16.7 0V7.6m7.1 11.9V7.6m7.1 11.9V7.6" fill="#232f3e" stroke="#232f3e" stroke-width="1.5" stroke-dasharray="0,22.9" stroke-dashoffset="22.9" stroke-miterlimit="10"/></g><g transform="translate(160)"><defs><clipPath id="clip_frame4_path_4"><path d="M12.3 26.6h20.3M9.1 1H5m10.3 26.6c-.159 0-.312.074-.424.205-.113.131-.176.309-.176.495s.063.364.176.495c.112.131.265.205.424.205.159 0 .312-.074.424-.205.113-.131.176-.309.176-.495s-.063-.364-.176-.495c-.112-.131-.265-.205-.424-.205zm14.2 0c-.159 0-.312.074-.424.205-.113.131-.176.309-.176.495s.063.364.176.495c.112.131.265.205.424.205.159 0 .312-.074.424-.205.113-.131.176-.309.176-.495s-.063-.364-.176-.495c-.112-.131-.265-.205-.424-.205zm-17.2-5.7h20.3L35 5.5H9.9zM9.9 5.5L9.1 1"/></clipPath></defs><path d="M12.3 26.6h20.3M9.1 1H5m10.3 26.6c-.159 0-.312.074-.424.205-.113.131-.176.309-.176.495s.063.364.176.495c.112.131.265.205.424.205.159 0 .312-.074.424-.205.113-.131.176-.309.176-.495s-.063-.364-.176-.495c-.112-.131-.265-.205-.424-.205zm14.2 0c-.159 0-.312.074-.424.205-.113.131-.176.309-.176.495s.063.364.176.495c.112.131.265.205.424.205.159 0 .312-.074.424-.205.113-.131.176-.309.176-.495s-.063-.364-.176-.495c-.112-.131-.265-.205-.424-.205zm-17.2-5.7h20.3L35 5.5H9.9zM9.9 5.5L9.1 1" fill="#232f3e" stroke="#ffffff" stroke-width=".5" stroke-miterlimit="10"/><path d="M12.3 26.6c-1.2 0-2-1-2-2.4s.8-2.4 2-2.4" fill="#232f3e" stroke="#ffffff" stroke-width=".5" stroke-miterlimit="10"/><path clip-path="url(#clip_frame4_path_4)" d="M6.4 11.006s9.1 2.249 17.7 0 14.7 0 14.7 0V23H6.4V11.006z" fill="#ffffff" stroke="#ffffff" stroke-width=".25" stroke-miterlimit="10"/><path d="M10.9 7.6h22.9m-21.9 6H33m-20.3 5.9H32m-16.7 0V7.6m7.1 11.9V7.6m7.1 11.9V7.6" fill="#232f3e" stroke="#232f3e" stroke-width="1.5" stroke-dasharray="0,22.9" stroke-dashoffset="22.9" stroke-miterlimit="10"/></g><g transform="translate(200)"><defs><clipPath id="clip_frame5_path_4"><path d="M12.3 26.6h20.3M9.1 1H5m10.3 26.6c-.159 0-.312.074-.424.205-.113.131-.176.309-.176.495s.063.364.176.495c.112.131.265.205.424.205.159 0 .312-.074.424-.205.113-.131.176-.309.176-.495s-.063-.364-.176-.495c-.112-.131-.265-.205-.424-.205zm14.2 0c-.159 0-.312.074-.424.205-.113.131-.176.309-.176.495s.063.364.176.495c.112.131.265.205.424.205.159 0 .312-.074.424-.205.113-.131.176-.309.176-.495s-.063-.364-.176-.495c-.112-.131-.265-.205-.424-.205zm-17.2-5.7h20.3L35 5.5H9.9zM9.9 5.5L9.1 1"/></clipPath></defs><path d="M12.3 26.6h20.3M9.1 1H5m10.3 26.6c-.159 0-.312.074-.424.205-.113.131-.176.309-.176.495s.063.364.176.495c.112.131.265.205.424.205.159 0 .312-.074.424-.205.113-.131.176-.309.176-.495s-.063-.364-.176-.495c-.112-.131-.265-.205-.424-.205zm14.2 0c-.159 0-.312.074-.424.205-.113.131-.176.309-.176.495s.063.364.176.495c.112.131.265.205.424.205.159 0 .312-.074.424-.205.113-.131.176-.309.176-.495s-.063-.364-.176-.495c-.112-.131-.265-.205-.424-.205zm-17.2-5.7h20.3L35 5.5H9.9zM9.9 5.5L9.1 1" fill="#232f3e" stroke="#ffffff" stroke-width=".5" stroke-miterlimit="10"/><path d="M12.3 26.6c-1.2 0-2-1-2-2.4s.8-2.4 2-2.4" fill="#232f3e" stroke="#ffffff" stroke-width=".5" stroke-miterlimit="10"/><path clip-path="url(#clip_frame5_path_4)" d="M6.4 6.338s9.1 3.137 17.7 0c8.6-3.138 14.7 0 14.7 0V23H6.4V6.338z" fill="#ffffff" stroke="#ffffff" stroke-width=".25" stroke-miterlimit="10"/><path d="M10.9 7.6h22.9m-21.9 6H33m-20.3 5.9H32m-16.7 0V7.6m7.1 11.9V7.6m7.1 11.9V7.6" fill="#232f3e" stroke="#232f3e" stroke-width="1.5" stroke-dasharray="0,22.9" stroke-dashoffset="22.9" stroke-miterlimit="10"/></g><g transform="translate(240)"><defs><clipPath id="clip_frame6_path_4"><path d="M12.3 26.6h20.3M9.1 1H5m10.3 26.6c-.159 0-.312.074-.424.205-.113.131-.176.309-.176.495s.063.364.176.495c.112.131.265.205.424.205.159 0 .312-.074.424-.205.113-.131.176-.309.176-.495s-.063-.364-.176-.495c-.112-.131-.265-.205-.424-.205zm14.2 0c-.159 0-.312.074-.424.205-.113.131-.176.309-.176.495s.063.364.176.495c.112.131.265.205.424.205.159 0 .312-.074.424-.205.113-.131.176-.309.176-.495s-.063-.364-.176-.495c-.112-.131-.265-.205-.424-.205zm-17.2-5.7h20.3L35 5.5H9.9zM9.9 5.5L9.1 1"/></clipPath></defs><path d="M12.3 26.6h20.3M9.1 1H5m10.3 26.6c-.159 0-.312.074-.424.205-.113.131-.176.309-.176.495s.063.364.176.495c.112.131.265.205.424.205.159 0 .312-.074.424-.205.113-.131.176-.309.176-.495s-.063-.364-.176-.495c-.112-.131-.265-.205-.424-.205zm14.2 0c-.159 0-.312.074-.424.205-.113.131-.176.309-.176.495s.063.364.176.495c.112.131.265.205.424.205.159 0 .312-.074.424-.205.113-.131.176-.309.176-.495s-.063-.364-.176-.495c-.112-.131-.265-.205-.424-.205zm-17.2-5.7h20.3L35 5.5H9.9zM9.9 5.5L9.1 1" fill="#232f3e" stroke="#ffffff" stroke-width=".5" stroke-miterlimit="10"/><path d="M12.3 26.6c-1.2 0-2-1-2-2.4s.8-2.4 2-2.4" fill="#232f3e" stroke="#ffffff" stroke-width=".5" stroke-miterlimit="10"/><path clip-path="url(#clip_frame6_path_4)" d="M6.4 3.144s9.1 3.745 17.7 0c8.6-3.746 14.7 0 14.7 0V23H6.4V3.144z" fill="#ffffff" stroke="#ffffff" stroke-width=".25" stroke-miterlimit="10"/><path d="M10.9 7.6h22.9m-21.9 6H33m-20.3 5.9H32m-16.7 0V7.6m7.1 11.9V7.6m7.1 11.9V7.6" fill="#232f3e" stroke="#232f3e" stroke-width="1.5" stroke-dasharray="0,22.9" stroke-dashoffset="22.9" stroke-miterlimit="10"/></g><g transform="translate(280)"><defs><clipPath id="clip_frame7_path_4"><path d="M12.3 26.6h20.3M9.1 1H5m10.3 26.6c-.159 0-.312.074-.424.205-.113.131-.176.309-.176.495s.063.364.176.495c.112.131.265.205.424.205.159 0 .312-.074.424-.205.113-.131.176-.309.176-.495s-.063-.364-.176-.495c-.112-.131-.265-.205-.424-.205zm14.2 0c-.159 0-.312.074-.424.205-.113.131-.176.309-.176.495s.063.364.176.495c.112.131.265.205.424.205.159 0 .312-.074.424-.205.113-.131.176-.309.176-.495s-.063-.364-.176-.495c-.112-.131-.265-.205-.424-.205zm-17.2-5.7h20.3L35 5.5H9.9zM9.9 5.5L9.1 1"/></clipPath></defs><path d="M12.3 26.6h20.3M9.1 1H5m10.3 26.6c-.159 0-.312.074-.424.205-.113.131-.176.309-.176.495s.063.364.176.495c.112.131.265.205.424.205.159 0 .312-.074.424-.205.113-.131.176-.309.176-.495s-.063-.364-.176-.495c-.112-.131-.265-.205-.424-.205zm14.2 0c-.159 0-.312.074-.424.205-.113.131-.176.309-.176.495s.063.364.176.495c.112.131.265.205.424.205.159 0 .312-.074.424-.205.113-.131.176-.309.176-.495s-.063-.364-.176-.495c-.112-.131-.265-.205-.424-.205zm-17.2-5.7h20.3L35 5.5H9.9zM9.9 5.5L9.1 1" fill="#232f3e" stroke="#ffffff" stroke-width=".5" stroke-miterlimit="10"/><path d="M12.3 26.6c-1.2 0-2-1-2-2.4s.8-2.4 2-2.4" fill="#232f3e" stroke="#ffffff" stroke-width=".5" stroke-miterlimit="10"/><path clip-path="url(#clip_frame7_path_4)" d="M6.4 1s9.1 4.153 17.7 0 14.7 0 14.7 0v22H6.4V1z" fill="#ffffff" stroke="#ffffff" stroke-width=".25" stroke-miterlimit="10"/><path d="M10.9 7.6h22.9m-21.9 6H33m-20.3 5.9H32m-16.7 0V7.6m7.1 11.9V7.6m7.1 11.9V7.6" fill="#232f3e" stroke="#232f3e" stroke-width="1.5" stroke-dasharray="0,22.9" stroke-dashoffset="22.9" stroke-miterlimit="10"/></g><g transform="translate(320)"><defs><clipPath id="clip_frame8_path_4"><path d="M12.3 26.6h20.3M9.1 1H5m10.3 26.6c-.159 0-.312.074-.424.205-.113.131-.176.309-.176.495s.063.364.176.495c.112.131.265.205.424.205.159 0 .312-.074.424-.205.113-.131.176-.309.176-.495s-.063-.364-.176-.495c-.112-.131-.265-.205-.424-.205zm14.2 0c-.159 0-.312.074-.424.205-.113.131-.176.309-.176.495s.063.364.176.495c.112.131.265.205.424.205.159 0 .312-.074.424-.205.113-.131.176-.309.176-.495s-.063-.364-.176-.495c-.112-.131-.265-.205-.424-.205zm-17.2-5.7h20.3L35 5.5H9.9zM9.9 5.5L9.1 1"/></clipPath></defs><path d="M12.3 26.6h20.3M9.1 1H5m10.3 26.6c-.159 0-.312.074-.424.205-.113.131-.176.309-.176.495s.063.364.176.495c.112.131.265.205.424.205.159 0 .312-.074.424-.205.113-.131.176-.309.176-.495s-.063-.364-.176-.495c-.112-.131-.265-.205-.424-.205zm14.2 0c-.159 0-.312.074-.424.205-.113.131-.176.309-.176.495s.063.364.176.495c.112.131.265.205.424.205.159 0 .312-.074.424-.205.113-.131.176-.309.176-.495s-.063-.364-.176-.495c-.112-.131-.265-.205-.424-.205zm-17.2-5.7h20.3L35 5.5H9.9zM9.9 5.5L9.1 1" fill="#232f3e" stroke="#ffffff" stroke-width=".5" stroke-miterlimit="10"/><path d="M12.3 26.6c-1.2 0-2-1-2-2.4s.8-2.4 2-2.4" fill="#232f3e" stroke="#ffffff" stroke-width=".5" stroke-miterlimit="10"/><path clip-path="url(#clip_frame8_path_4)" d="M6.4-.443s9.1 4.427 17.7 0c8.6-4.428 14.7 0 14.7 0V23H6.4V-.443z" fill="#ffffff" stroke="#ffffff" stroke-width=".25" stroke-miterlimit="10"/><path d="M10.9 7.6h22.9m-21.9 6H33m-20.3 5.9H32m-16.7 0V7.6m7.1 11.9V7.6m7.1 11.9V7.6" fill="#232f3e" stroke="#232f3e" stroke-width="1.5" stroke-dasharray="0,22.9" stroke-dashoffset="22.9" stroke-miterlimit="10"/></g><g transform="translate(360)"><defs><clipPath id="clip_frame9_path_4"><path d="M12.3 26.6h20.3M9.1 1H5m10.3 26.6c-.159 0-.312.074-.424.205-.113.131-.176.309-.176.495s.063.364.176.495c.112.131.265.205.424.205.159 0 .312-.074.424-.205.113-.131.176-.309.176-.495s-.063-.364-.176-.495c-.112-.131-.265-.205-.424-.205zm14.2 0c-.159 0-.312.074-.424.205-.113.131-.176.309-.176.495s.063.364.176.495c.112.131.265.205.424.205.159 0 .312-.074.424-.205.113-.131.176-.309.176-.495s-.063-.364-.176-.495c-.112-.131-.265-.205-.424-.205zm-17.2-5.7h20.3L35 5.5H9.9zM9.9 5.5L9.1 1"/></clipPath></defs><path d="M12.3 26.6h20.3M9.1 1H5m10.3 26.6c-.159 0-.312.074-.424.205-.113.131-.176.309-.176.495s.063.364.176.495c.112.131.265.205.424.205.159 0 .312-.074.424-.205.113-.131.176-.309.176-.495s-.063-.364-.176-.495c-.112-.131-.265-.205-.424-.205zm14.2 0c-.159 0-.312.074-.424.205-.113.131-.176.309-.176.495s.063.364.176.495c.112.131.265.205.424.205.159 0 .312-.074.424-.205.113-.131.176-.309.176-.495s-.063-.364-.176-.495c-.112-.131-.265-.205-.424-.205zm-17.2-5.7h20.3L35 5.5H9.9zM9.9 5.5L9.1 1" fill="#232f3e" stroke="#ffffff" stroke-width=".5" stroke-miterlimit="10"/><path d="M12.3 26.6c-1.2 0-2-1-2-2.4s.8-2.4 2-2.4" fill="#232f3e" stroke="#ffffff" stroke-width=".5" stroke-miterlimit="10"/><path clip-path="url(#clip_frame9_path_4)" d="M6.4-1.396s9.1 4.609 17.7 0 14.7 0 14.7 0V23H6.4V-1.396z" fill="#ffffff" stroke="#ffffff" stroke-width=".25" stroke-miterlimit="10"/><path d="M10.9 7.6h22.9m-21.9 6H33m-20.3 5.9H32m-16.7 0V7.6m7.1 11.9V7.6m7.1 11.9V7.6" fill="#232f3e" stroke="#232f3e" stroke-width="1.5" stroke-dasharray="0,22.9" stroke-dashoffset="22.9" stroke-miterlimit="10"/></g><g transform="translate(400)"><defs><clipPath id="clip_frame10_path_4"><path d="M12.3 26.6h20.3M9.1 1H5m10.3 26.6c-.159 0-.312.074-.424.205-.113.131-.176.309-.176.495s.063.364.176.495c.112.131.265.205.424.205.159 0 .312-.074.424-.205.113-.131.176-.309.176-.495s-.063-.364-.176-.495c-.112-.131-.265-.205-.424-.205zm14.2 0c-.159 0-.312.074-.424.205-.113.131-.176.309-.176.495s.063.364.176.495c.112.131.265.205.424.205.159 0 .312-.074.424-.205.113-.131.176-.309.176-.495s-.063-.364-.176-.495c-.112-.131-.265-.205-.424-.205zm-17.2-5.7h20.3L35 5.5H9.9zM9.9 5.5L9.1 1"/></clipPath></defs><path d="M12.3 26.6h20.3M9.1 1H5m10.3 26.6c-.159 0-.312.074-.424.205-.113.131-.176.309-.176.495s.063.364.176.495c.112.131.265.205.424.205.159 0 .312-.074.424-.205.113-.131.176-.309.176-.495s-.063-.364-.176-.495c-.112-.131-.265-.205-.424-.205zm14.2 0c-.159 0-.312.074-.424.205-.113.131-.176.309-.176.495s.063.364.176.495c.112.131.265.205.424.205.159 0 .312-.074.424-.205.113-.131.176-.309.176-.495s-.063-.364-.176-.495c-.112-.131-.265-.205-.424-.205zm-17.2-5.7h20.3L35 5.5H9.9zM9.9 5.5L9.1 1" fill="#232f3e" stroke="#ffffff" stroke-width=".5" stroke-miterlimit="10"/><path d="M12.3 26.6c-1.2 0-2-1-2-2.4s.8-2.4 2-2.4" fill="#232f3e" stroke="#ffffff" stroke-width=".5" stroke-miterlimit="10"/><path clip-path="url(#clip_frame10_path_4)" d="M6.4-1.989s9.1 4.722 17.7 0 14.7 0 14.7 0V23H6.4V-1.989z" fill="#ffffff" stroke="#ffffff" stroke-width=".25" stroke-miterlimit="10"/><path d="M10.9 7.6h22.9m-21.9 6H33m-20.3 5.9H32m-16.7 0V7.6m7.1 11.9V7.6m7.1 11.9V7.6" fill="#232f3e" stroke="#232f3e" stroke-width="1.5" stroke-dasharray="0,22.9" stroke-dashoffset="22.9" stroke-miterlimit="10"/></g><g transform="translate(440)"><defs><clipPath id="clip_frame11_path_4"><path d="M12.3 26.6h20.3M9.1 1H5m10.3 26.6c-.159 0-.312.074-.424.205-.113.131-.176.309-.176.495s.063.364.176.495c.112.131.265.205.424.205.159 0 .312-.074.424-.205.113-.131.176-.309.176-.495s-.063-.364-.176-.495c-.112-.131-.265-.205-.424-.205zm14.2 0c-.159 0-.312.074-.424.205-.113.131-.176.309-.176.495s.063.364.176.495c.112.131.265.205.424.205.159 0 .312-.074.424-.205.113-.131.176-.309.176-.495s-.063-.364-.176-.495c-.112-.131-.265-.205-.424-.205zm-17.2-5.7h20.3L35 5.5H9.9zM9.9 5.5L9.1 1"/></clipPath></defs><path d="M12.3 26.6h20.3M9.1 1H5m10.3 26.6c-.159 0-.312.074-.424.205-.113.131-.176.309-.176.495s.063.364.176.495c.112.131.265.205.424.205.159 0 .312-.074.424-.205.113-.131.176-.309.176-.495s-.063-.364-.176-.495c-.112-.131-.265-.205-.424-.205zm14.2 0c-.159 0-.312.074-.424.205-.113.131-.176.309-.176.495s.063.364.176.495c.112.131.265.205.424.205.159 0 .312-.074.424-.205.113-.131.176-.309.176-.495s-.063-.364-.176-.495c-.112-.131-.265-.205-.424-.205zm-17.2-5.7h20.3L35 5.5H9.9zM9.9 5.5L9.1 1" fill="#232f3e" stroke="#ffffff" stroke-width=".5" stroke-miterlimit="10"/><path d="M12.3 26.6c-1.2 0-2-1-2-2.4s.8-2.4 2-2.4" fill="#232f3e" stroke="#ffffff" stroke-width=".5" stroke-miterlimit="10"/><path clip-path="url(#clip_frame11_path_4)" d="M6.4-2.305s9.1 4.782 17.7 0c8.6-4.781 14.7 0 14.7 0V23H6.4V-2.305z" fill="#ffffff" stroke="#ffffff" stroke-width=".25" stroke-miterlimit="10"/><path d="M10.9 7.6h22.9m-21.9 6H33m-20.3 5.9H32m-16.7 0V7.6m7.1 11.9V7.6m7.1 11.9V7.6" fill="#232f3e" stroke="#232f3e" stroke-width="1.5" stroke-dasharray="0,22.9" stroke-dashoffset="22.9" stroke-miterlimit="10"/></g><g transform="translate(480)"><defs><clipPath id="clip_frame12_path_4"><path d="M12.3 26.6h20.3M9.1 1H5m10.3 26.6c-.159 0-.312.074-.424.205-.113.131-.176.309-.176.495s.063.364.176.495c.112.131.265.205.424.205.159 0 .312-.074.424-.205.113-.131.176-.309.176-.495s-.063-.364-.176-.495c-.112-.131-.265-.205-.424-.205zm14.2 0c-.159 0-.312.074-.424.205-.113.131-.176.309-.176.495s.063.364.176.495c.112.131.265.205.424.205.159 0 .312-.074.424-.205.113-.131.176-.309.176-.495s-.063-.364-.176-.495c-.112-.131-.265-.205-.424-.205zm-17.2-5.7h20.3L35 5.5H9.9zM9.9 5.5L9.1 1"/></clipPath></defs><path d="M12.3 26.6h20.3M9.1 1H5m10.3 26.6c-.159 0-.312.074-.424.205-.113.131-.176.309-.176.495s.063.364.176.495c.112.131.265.205.424.205.159 0 .312-.074.424-.205.113-.131.176-.309.176-.495s-.063-.364-.176-.495c-.112-.131-.265-.205-.424-.205zm14.2 0c-.159 0-.312.074-.424.205-.113.131-.176.309-.176.495s.063.364.176.495c.112.131.265.205.424.205.159 0 .312-.074.424-.205.113-.131.176-.309.176-.495s-.063-.364-.176-.495c-.112-.131-.265-.205-.424-.205zm-17.2-5.7h20.3L35 5.5H9.9zM9.9 5.5L9.1 1" fill="#232f3e" stroke="#ffffff" stroke-width=".5" stroke-miterlimit="10"/><path d="M12.3 26.6c-1.2 0-2-1-2-2.4s.8-2.4 2-2.4" fill="#232f3e" stroke="#ffffff" stroke-width=".5" stroke-miterlimit="10"/><path clip-path="url(#clip_frame12_path_4)" d="M6.4-2.4s9.1 4.8 17.7 0 14.7 0 14.7 0V23H6.4V-2.4z" fill="#ffffff" stroke="#ffffff" stroke-width=".25" stroke-miterlimit="10"/><path d="M10.9 7.6h22.9m-21.9 6H33m-20.3 5.9H32m-16.7 0V7.6m7.1 11.9V7.6m7.1 11.9V7.6" fill="#232f3e" stroke="#232f3e" stroke-width="1.5" stroke-dasharray="0,22.9" stroke-dashoffset="22.9" stroke-miterlimit="10"/></g><g transform="translate(520)"><defs><clipPath id="clip_frame13_path_4"><path d="M12.3 26.6h20.3M9.1 1H5m10.3 26.6c-.159 0-.312.074-.424.205-.113.131-.176.309-.176.495s.063.364.176.495c.112.131.265.205.424.205.159 0 .312-.074.424-.205.113-.131.176-.309.176-.495s-.063-.364-.176-.495c-.112-.131-.265-.205-.424-.205zm14.2 0c-.159 0-.312.074-.424.205-.113.131-.176.309-.176.495s.063.364.176.495c.112.131.265.205.424.205.159 0 .312-.074.424-.205.113-.131.176-.309.176-.495s-.063-.364-.176-.495c-.112-.131-.265-.205-.424-.205zm-17.2-5.7h20.3L35 5.5H9.9zM9.9 5.5L9.1 1"/></clipPath></defs><path d="M12.3 26.6h20.3M9.1 1H5m10.3 26.6c-.159 0-.312.074-.424.205-.113.131-.176.309-.176.495s.063.364.176.495c.112.131.265.205.424.205.159 0 .312-.074.424-.205.113-.131.176-.309.176-.495s-.063-.364-.176-.495c-.112-.131-.265-.205-.424-.205zm14.2 0c-.159 0-.312.074-.424.205-.113.131-.176.309-.176.495s.063.364.176.495c.112.131.265.205.424.205.159 0 .312-.074.424-.205.113-.131.176-.309.176-.495s-.063-.364-.176-.495c-.112-.131-.265-.205-.424-.205zm-17.2-5.7h20.3L35 5.5H9.9zM9.9 5.5L9.1 1" fill="#232f3e" stroke="#ffffff" stroke-width=".5" stroke-miterlimit="10"/><path d="M12.3 26.6c-1.2 0-2-1-2-2.4s.8-2.4 2-2.4" fill="#232f3e" stroke="#ffffff" stroke-width=".5" stroke-miterlimit="10"/><path clip-path="url(#clip_frame13_path_4)" d="M6.4-2.4s9.1 4.8 17.7 0 14.7 0 14.7 0V23H6.4V-2.4z" fill="#ffffff" stroke="#ffffff" stroke-width=".25" stroke-miterlimit="10"/><path d="M10.9 7.6h22.9m-21.9 6H33m-20.3 5.9H32m-16.7 0V7.6m7.1 11.9V7.6m7.1 11.9V7.6" fill="#232f3e" stroke="#232f3e" stroke-width="1.5" stroke-dasharray="1.948915528767127,20.95108447123287" stroke-dashoffset="22.9" stroke-miterlimit="10"/></g><g transform="translate(560)"><defs><clipPath id="clip_frame14_path_4"><path d="M12.3 26.6h20.3M9.1 1H5m10.3 26.6c-.159 0-.312.074-.424.205-.113.131-.176.309-.176.495s.063.364.176.495c.112.131.265.205.424.205.159 0 .312-.074.424-.205.113-.131.176-.309.176-.495s-.063-.364-.176-.495c-.112-.131-.265-.205-.424-.205zm14.2 0c-.159 0-.312.074-.424.205-.113.131-.176.309-.176.495s.063.364.176.495c.112.131.265.205.424.205.159 0 .312-.074.424-.205.113-.131.176-.309.176-.495s-.063-.364-.176-.495c-.112-.131-.265-.205-.424-.205zm-17.2-5.7h20.3L35 5.5H9.9zM9.9 5.5L9.1 1"/></clipPath></defs><path d="M12.3 26.6h20.3M9.1 1H5m10.3 26.6c-.159 0-.312.074-.424.205-.113.131-.176.309-.176.495s.063.364.176.495c.112.131.265.205.424.205.159 0 .312-.074.424-.205.113-.131.176-.309.176-.495s-.063-.364-.176-.495c-.112-.131-.265-.205-.424-.205zm14.2 0c-.159 0-.312.074-.424.205-.113.131-.176.309-.176.495s.063.364.176.495c.112.131.265.205.424.205.159 0 .312-.074.424-.205.113-.131.176-.309.176-.495s-.063-.364-.176-.495c-.112-.131-.265-.205-.424-.205zm-17.2-5.7h20.3L35 5.5H9.9zM9.9 5.5L9.1 1" fill="#232f3e" stroke="#ffffff" stroke-width=".5" stroke-miterlimit="10"/><path d="M12.3 26.6c-1.2 0-2-1-2-2.4s.8-2.4 2-2.4" fill="#232f3e" stroke="#ffffff" stroke-width=".5" stroke-miterlimit="10"/><path clip-path="url(#clip_frame14_path_4)" d="M6.4-2.4s9.1 4.8 17.7 0 14.7 0 14.7 0V23H6.4V-2.4z" fill="#ffffff" stroke="#ffffff" stroke-width=".25" stroke-miterlimit="10"/><path d="M10.9 7.6h22.9m-21.9 6H33m-20.3 5.9H32m-16.7 0V7.6m7.1 11.9V7.6m7.1 11.9V7.6" fill="#232f3e" stroke="#232f3e" stroke-width="1.5" stroke-dasharray="10.47106484180636,12.428935158193639" stroke-dashoffset="22.9" stroke-miterlimit="10"/></g><g transform="translate(600)"><defs><clipPath id="clip_frame15_path_4"><path d="M12.3 26.6h20.3M9.1 1H5m10.3 26.6c-.159 0-.312.074-.424.205-.113.131-.176.309-.176.495s.063.364.176.495c.112.131.265.205.424.205.159 0 .312-.074.424-.205.113-.131.176-.309.176-.495s-.063-.364-.176-.495c-.112-.131-.265-.205-.424-.205zm14.2 0c-.159 0-.312.074-.424.205-.113.131-.176.309-.176.495s.063.364.176.495c.112.131.265.205.424.205.159 0 .312-.074.424-.205.113-.131.176-.309.176-.495s-.063-.364-.176-.495c-.112-.131-.265-.205-.424-.205zm-17.2-5.7h20.3L35 5.5H9.9zM9.9 5.5L9.1 1"/></clipPath></defs><path d="M12.3 26.6h20.3M9.1 1H5m10.3 26.6c-.159 0-.312.074-.424.205-.113.131-.176.309-.176.495s.063.364.176.495c.112.131.265.205.424.205.159 0 .312-.074.424-.205.113-.131.176-.309.176-.495s-.063-.364-.176-.495c-.112-.131-.265-.205-.424-.205zm14.2 0c-.159 0-.312.074-.424.205-.113.131-.176.309-.176.495s.063.364.176.495c.112.131.265.205.424.205.159 0 .312-.074.424-.205.113-.131.176-.309.176-.495s-.063-.364-.176-.495c-.112-.131-.265-.205-.424-.205zm-17.2-5.7h20.3L35 5.5H9.9zM9.9 5.5L9.1 1" fill="#232f3e" stroke="#ffffff" stroke-width=".5" stroke-miterlimit="10"/><path d="M12.3 26.6c-1.2 0-2-1-2-2.4s.8-2.4 2-2.4" fill="#232f3e" stroke="#ffffff" stroke-width=".5" stroke-miterlimit="10"/><path clip-path="url(#clip_frame15_path_4)" d="M6.4-2.4s9.1 4.8 17.7 0 14.7 0 14.7 0V23H6.4V-2.4z" fill="#ffffff" stroke="#ffffff" stroke-width=".25" stroke-miterlimit="10"/><path d="M10.9 7.6h22.9m-21.9 6H33m-20.3 5.9H32m-16.7 0V7.6m7.1 11.9V7.6m7.1 11.9V7.6" fill="#232f3e" stroke="#232f3e" stroke-width="1.5" stroke-dasharray="17.76035402456093,5.1396459754390715" stroke-dashoffset="22.9" stroke-miterlimit="10"/></g><g transform="translate(640)"><defs><clipPath id="clip_frame16_path_4"><path d="M12.3 26.6h20.3M9.1 1H5m10.3 26.6c-.159 0-.312.074-.424.205-.113.131-.176.309-.176.495s.063.364.176.495c.112.131.265.205.424.205.159 0 .312-.074.424-.205.113-.131.176-.309.176-.495s-.063-.364-.176-.495c-.112-.131-.265-.205-.424-.205zm14.2 0c-.159 0-.312.074-.424.205-.113.131-.176.309-.176.495s.063.364.176.495c.112.131.265.205.424.205.159 0 .312-.074.424-.205.113-.131.176-.309.176-.495s-.063-.364-.176-.495c-.112-.131-.265-.205-.424-.205zm-17.2-5.7h20.3L35 5.5H9.9zM9.9 5.5L9.1 1"/></clipPath></defs><path d="M12.3 26.6h20.3M9.1 1H5m10.3 26.6c-.159 0-.312.074-.424.205-.113.131-.176.309-.176.495s.063.364.176.495c.112.131.265.205.424.205.159 0 .312-.074.424-.205.113-.131.176-.309.176-.495s-.063-.364-.176-.495c-.112-.131-.265-.205-.424-.205zm14.2 0c-.159 0-.312.074-.424.205-.113.131-.176.309-.176.495s.063.364.176.495c.112.131.265.205.424.205.159 0 .312-.074.424-.205.113-.131.176-.309.176-.495s-.063-.364-.176-.495c-.112-.131-.265-.205-.424-.205zm-17.2-5.7h20.3L35 5.5H9.9zM9.9 5.5L9.1 1" fill="#232f3e" stroke="#ffffff" stroke-width=".5" stroke-miterlimit="10"/><path d="M12.3 26.6c-1.2 0-2-1-2-2.4s.8-2.4 2-2.4" fill="#232f3e" stroke="#ffffff" stroke-width=".5" stroke-miterlimit="10"/><path clip-path="url(#clip_frame16_path_4)" d="M6.4-2.4s9.1 4.8 17.7 0 14.7 0 14.7 0V23H6.4V-2.4z" fill="#ffffff" stroke="#ffffff" stroke-width=".25" stroke-miterlimit="10"/><path d="M10.9 7.6h22.9m-21.9 6H33m-20.3 5.9H32m-16.7 0V7.6m7.1 11.9V7.6m7.1 11.9V7.6" fill="#232f3e" stroke="#232f3e" stroke-width="1.5" stroke-dasharray="21.08576544053215,1.8142345594678502" stroke-dashoffset="22.9" stroke-miterlimit="10"/></g><g transform="translate(680)"><defs><clipPath id="clip_frame17_path_4"><path d="M12.3 26.6h20.3M9.1 1H5m10.3 26.6c-.159 0-.312.074-.424.205-.113.131-.176.309-.176.495s.063.364.176.495c.112.131.265.205.424.205.159 0 .312-.074.424-.205.113-.131.176-.309.176-.495s-.063-.364-.176-.495c-.112-.131-.265-.205-.424-.205zm14.2 0c-.159 0-.312.074-.424.205-.113.131-.176.309-.176.495s.063.364.176.495c.112.131.265.205.424.205.159 0 .312-.074.424-.205.113-.131.176-.309.176-.495s-.063-.364-.176-.495c-.112-.131-.265-.205-.424-.205zm-17.2-5.7h20.3L35 5.5H9.9zM9.9 5.5L9.1 1"/></clipPath></defs><path d="M12.3 26.6h20.3M9.1 1H5m10.3 26.6c-.159 0-.312.074-.424.205-.113.131-.176.309-.176.495s.063.364.176.495c.112.131.265.205.424.205.159 0 .312-.074.424-.205.113-.131.176-.309.176-.495s-.063-.364-.176-.495c-.112-.131-.265-.205-.424-.205zm14.2 0c-.159 0-.312.074-.424.205-.113.131-.176.309-.176.495s.063.364.176.495c.112.131.265.205.424.205.159 0 .312-.074.424-.205.113-.131.176-.309.176-.495s-.063-.364-.176-.495c-.112-.131-.265-.205-.424-.205zm-17.2-5.7h20.3L35 5.5H9.9zM9.9 5.5L9.1 1" fill="#232f3e" stroke="#ffffff" stroke-width=".5" stroke-miterlimit="10"/><path d="M12.3 26.6c-1.2 0-2-1-2-2.4s.8-2.4 2-2.4" fill="#232f3e" stroke="#ffffff" stroke-width=".5" stroke-miterlimit="10"/><path clip-path="url(#clip_frame17_path_4)" d="M6.4-2.4s9.1 4.8 17.7 0 14.7 0 14.7 0V23H6.4V-2.4z" fill="#ffffff" stroke="#ffffff" stroke-width=".25" stroke-miterlimit="10"/><path d="M10.9 7.6h22.9m-21.9 6H33m-20.3 5.9H32m-16.7 0V7.6m7.1 11.9V7.6m7.1 11.9V7.6" fill="#232f3e" stroke="#232f3e" stroke-width="1.5" stroke-dasharray="22.51891275658931,0.38108724341069106" stroke-dashoffset="22.9" stroke-miterlimit="10"/></g><g transform="translate(720)"><defs><clipPath id="clip_frame18_path_4"><path d="M12.3 26.6h20.3M9.1 1H5m10.3 26.6c-.159 0-.312.074-.424.205-.113.131-.176.309-.176.495s.063.364.176.495c.112.131.265.205.424.205.159 0 .312-.074.424-.205.113-.131.176-.309.176-.495s-.063-.364-.176-.495c-.112-.131-.265-.205-.424-.205zm14.2 0c-.159 0-.312.074-.424.205-.113.131-.176.309-.176.495s.063.364.176.495c.112.131.265.205.424.205.159 0 .312-.074.424-.205.113-.131.176-.309.176-.495s-.063-.364-.176-.495c-.112-.131-.265-.205-.424-.205zm-17.2-5.7h20.3L35 5.5H9.9zM9.9 5.5L9.1 1"/></clipPath></defs><path d="M12.3 26.6h20.3M9.1 1H5m10.3 26.6c-.159 0-.312.074-.424.205-.113.131-.176.309-.176.495s.063.364.176.495c.112.131.265.205.424.205.159 0 .312-.074.424-.205.113-.131.176-.309.176-.495s-.063-.364-.176-.495c-.112-.131-.265-.205-.424-.205zm14.2 0c-.159 0-.312.074-.424.205-.113.131-.176.309-.176.495s.063.364.176.495c.112.131.265.205.424.205.159 0 .312-.074.424-.205.113-.131.176-.309.176-.495s-.063-.364-.176-.495c-.112-.131-.265-.205-.424-.205zm-17.2-5.7h20.3L35 5.5H9.9zM9.9 5.5L9.1 1" fill="#232f3e" stroke="#ffffff" stroke-width=".5" stroke-miterlimit="10"/><path d="M12.3 26.6c-1.2 0-2-1-2-2.4s.8-2.4 2-2.4" fill="#232f3e" stroke="#ffffff" stroke-width=".5" stroke-miterlimit="10"/><path clip-path="url(#clip_frame18_path_4)" d="M6.4-2.4s9.1 4.8 17.7 0 14.7 0 14.7 0V23H6.4V-2.4z" fill="#ffffff" stroke="#ffffff" stroke-width=".25" stroke-miterlimit="10"/><path d="M10.9 7.6h22.9m-21.9 6H33m-20.3 5.9H32m-16.7 0V7.6m7.1 11.9V7.6m7.1 11.9V7.6" fill="#232f3e" stroke="#232f3e" stroke-width="1.5" stroke-miterlimit="10"/></g></svg>